<svg width="24" height="24" viewBox="0 0 24 24" fill="none" xmlns="http://www.w3.org/2000/svg">
<path d="M9.13478 20.7735V17.7157C9.13478 16.9352 9.77217 16.3024 10.5584 16.3024H13.4326C13.8102 16.3024 14.1723 16.4513 14.4393 16.7164C14.7063 16.9814 14.8563 17.3409 14.8563 17.7157V20.7735C14.8539 21.098 14.9821 21.41 15.2124 21.6403C15.4427 21.8706 15.756 22.0001 16.0829 22.0001H18.0438C18.9596 22.0025 19.8388 21.643 20.4872 21.0009C21.1356 20.3589 21.5 19.4871 21.5 18.5779V9.86698C21.5 9.13258 21.1721 8.43596 20.6046 7.96479L13.934 2.67599C12.7737 1.74868 11.1111 1.77862 9.98539 2.7471L3.46701 7.96479C2.87274 8.42207 2.51755 9.12076 2.5 9.86698V18.5691C2.5 20.464 4.04738 22.0001 5.95617 22.0001H7.87229C8.55123 22.0001 9.103 21.4563 9.10792 20.7824L9.13478 20.7735Z" fill="black"/>
</svg>
