<svg width="24" height="24" viewBox="0 0 24 24" fill="none" xmlns="http://www.w3.org/2000/svg">
<g clip-path="url(#clip0_144_385)">
<path fill-rule="evenodd" clip-rule="evenodd" d="M12.0001 4.04838C10.2653 2.62414 8.27976 1.93827 6.4737 1.96511C4.48592 1.99465 2.66671 2.90112 1.78601 4.68531C0.912333 6.45529 1.06754 8.87625 2.53582 11.7362C4.00622 14.6003 6.83578 18.0021 11.5134 21.8566C11.5619 21.898 11.6147 21.9324 11.6703 21.9596C11.8799 22.0624 12.1244 22.0601 12.33 21.9596C12.3856 21.9324 12.4383 21.898 12.4868 21.8566C17.1645 18.0021 19.994 14.6003 21.4644 11.7362C22.9327 8.87625 23.0879 6.45529 22.2142 4.68531C21.3335 2.90112 19.5143 1.99465 17.5265 1.96511C15.7205 1.93827 13.735 2.62414 12.0001 4.04838Z" fill="black"/>
</g>
<defs>
<clipPath id="clip0_144_385">
<rect width="24" height="24" fill="white"/>
</clipPath>
</defs>
</svg>
