<svg width="24" height="24" viewBox="0 0 24 24" fill="none" xmlns="http://www.w3.org/2000/svg">
<path d="M6.46236 19.0025C6.09066 19.0025 5.71895 18.8655 5.4255 18.5721C4.85817 18.0047 4.85817 17.0657 5.4255 16.4984L16.4984 5.4255C17.0657 4.85817 18.0047 4.85817 18.5721 5.4255C19.1394 5.99284 19.1394 6.93188 18.5721 7.49922L7.49922 18.5721C7.22533 18.8655 6.83406 19.0025 6.46236 19.0025Z" fill="black"/>
<path d="M17.5352 19.0025C17.1635 19.0025 16.7918 18.8655 16.4984 18.5721L5.4255 7.49922C4.85817 6.93188 4.85817 5.99284 5.4255 5.4255C5.99284 4.85817 6.93188 4.85817 7.49922 5.4255L18.5721 16.4984C19.1394 17.0657 19.1394 18.0047 18.5721 18.5721C18.2786 18.8655 17.9069 19.0025 17.5352 19.0025Z" fill="black"/>
</svg>
