<svg width="176" height="30" viewBox="0 0 176 30" fill="none" xmlns="http://www.w3.org/2000/svg">
<path d="M39.32 7.72L42.8 17.5H42.84V7.72H45.48V22H42.2L38.68 12H38.64V22H36V7.72H39.32ZM52.4244 16.62C52.2377 16.7667 52.0377 16.8867 51.8244 16.98C51.611 17.06 51.4177 17.12 51.2444 17.16C50.6844 17.28 50.2844 17.48 50.0444 17.76C49.8044 18.04 49.6844 18.42 49.6844 18.9C49.6844 19.3133 49.7644 19.6667 49.9244 19.96C50.0844 20.2533 50.351 20.4 50.7244 20.4C50.911 20.4 51.1044 20.3733 51.3044 20.32C51.5044 20.2533 51.6844 20.1533 51.8444 20.02C52.0177 19.8867 52.1577 19.7133 52.2644 19.5C52.371 19.2867 52.4244 19.0333 52.4244 18.74V16.62ZM47.3844 14.54V14.28C47.3844 13.6533 47.4844 13.1333 47.6844 12.72C47.8844 12.2933 48.151 11.9533 48.4844 11.7C48.831 11.4333 49.231 11.2467 49.6844 11.14C50.151 11.02 50.6444 10.96 51.1644 10.96C51.991 10.96 52.6577 11.04 53.1644 11.2C53.671 11.36 54.0644 11.5867 54.3444 11.88C54.6244 12.1733 54.811 12.5267 54.9044 12.94C55.011 13.34 55.0644 13.78 55.0644 14.26V19.92C55.0644 20.4267 55.0844 20.82 55.1244 21.1C55.1777 21.38 55.271 21.68 55.4044 22H52.7644C52.671 21.8267 52.5977 21.6467 52.5444 21.46C52.5044 21.26 52.4644 21.0667 52.4244 20.88H52.3844C52.0644 21.44 51.691 21.8067 51.2644 21.98C50.851 22.14 50.311 22.22 49.6444 22.22C49.1644 22.22 48.7577 22.14 48.4244 21.98C48.091 21.8067 47.8244 21.5733 47.6244 21.28C47.4244 20.9867 47.2777 20.66 47.1844 20.3C47.091 19.9267 47.0444 19.56 47.0444 19.2C47.0444 18.6933 47.0977 18.26 47.2044 17.9C47.311 17.5267 47.471 17.2133 47.6844 16.96C47.911 16.6933 48.191 16.4733 48.5244 16.3C48.871 16.1267 49.2844 15.9733 49.7644 15.84L51.3244 15.42C51.7377 15.3133 52.0244 15.1667 52.1844 14.98C52.3444 14.7933 52.4244 14.52 52.4244 14.16C52.4244 13.7467 52.3244 13.4267 52.1244 13.2C51.9377 12.96 51.611 12.84 51.1444 12.84C50.7177 12.84 50.3977 12.9667 50.1844 13.22C49.971 13.4733 49.8644 13.8133 49.8644 14.24V14.54H47.3844ZM62.1333 11.24H64.8933L62.1933 22H58.9933L56.2133 11.24H59.0933L60.6333 18.94H60.6733L62.1333 11.24ZM66.02 7.56H68.78V9.92H66.02V7.56ZM66.02 11.24H68.78V22H66.02V11.24ZM73.2647 16.96C73.2647 17.3333 73.278 17.6867 73.3047 18.02C73.3447 18.3533 73.4114 18.6533 73.5047 18.92C73.6114 19.1733 73.7514 19.38 73.9247 19.54C74.1114 19.6867 74.3514 19.76 74.6447 19.76C74.938 19.76 75.178 19.6867 75.3647 19.54C75.5647 19.38 75.718 19.1667 75.8247 18.9C75.9447 18.6333 76.0247 18.3133 76.0647 17.94C76.118 17.5533 76.1447 17.1333 76.1447 16.68C76.1447 15.3733 76.038 14.4467 75.8247 13.9C75.6247 13.3533 75.2514 13.08 74.7047 13.08C74.398 13.08 74.1514 13.1467 73.9647 13.28C73.778 13.4133 73.6314 13.6333 73.5247 13.94C73.418 14.2333 73.3447 14.6333 73.3047 15.14C73.278 15.6333 73.2647 16.24 73.2647 16.96ZM78.7847 11.24V21.46C78.7847 22.8467 78.438 23.8867 77.7447 24.58C77.0647 25.2733 75.918 25.62 74.3047 25.62C73.1314 25.62 72.2247 25.3667 71.5847 24.86C70.958 24.3667 70.6447 23.66 70.6447 22.74H73.2847C73.2847 23.0867 73.4247 23.36 73.7047 23.56C73.838 23.6533 73.978 23.7267 74.1247 23.78C74.2847 23.8333 74.4514 23.86 74.6247 23.86C75.1847 23.86 75.578 23.68 75.8047 23.32C76.0314 22.96 76.1447 22.5133 76.1447 21.98V20.56H76.1047C75.8247 20.96 75.478 21.28 75.0647 21.52C74.6647 21.76 74.2447 21.88 73.8047 21.88C72.7114 21.88 71.8847 21.4667 71.3247 20.64C70.778 19.8 70.5047 18.4 70.5047 16.44C70.5047 15.8133 70.538 15.1733 70.6047 14.52C70.6847 13.8667 70.838 13.28 71.0647 12.76C71.3047 12.2267 71.6447 11.7933 72.0847 11.46C72.538 11.1267 73.138 10.96 73.8847 10.96C74.2714 10.96 74.6714 11.0667 75.0847 11.28C75.498 11.4933 75.838 11.88 76.1047 12.44H76.1447V11.24H78.7847ZM85.7447 16.62C85.558 16.7667 85.358 16.8867 85.1447 16.98C84.9314 17.06 84.738 17.12 84.5647 17.16C84.0047 17.28 83.6047 17.48 83.3647 17.76C83.1247 18.04 83.0047 18.42 83.0047 18.9C83.0047 19.3133 83.0847 19.6667 83.2447 19.96C83.4047 20.2533 83.6714 20.4 84.0447 20.4C84.2314 20.4 84.4247 20.3733 84.6247 20.32C84.8247 20.2533 85.0047 20.1533 85.1647 20.02C85.338 19.8867 85.478 19.7133 85.5847 19.5C85.6914 19.2867 85.7447 19.0333 85.7447 18.74V16.62ZM80.7047 14.54V14.28C80.7047 13.6533 80.8047 13.1333 81.0047 12.72C81.2047 12.2933 81.4714 11.9533 81.8047 11.7C82.1514 11.4333 82.5514 11.2467 83.0047 11.14C83.4714 11.02 83.9647 10.96 84.4847 10.96C85.3114 10.96 85.978 11.04 86.4847 11.2C86.9914 11.36 87.3847 11.5867 87.6647 11.88C87.9447 12.1733 88.1314 12.5267 88.2247 12.94C88.3314 13.34 88.3847 13.78 88.3847 14.26V19.92C88.3847 20.4267 88.4047 20.82 88.4447 21.1C88.498 21.38 88.5914 21.68 88.7247 22H86.0847C85.9914 21.8267 85.918 21.6467 85.8647 21.46C85.8247 21.26 85.7847 21.0667 85.7447 20.88H85.7047C85.3847 21.44 85.0114 21.8067 84.5847 21.98C84.1714 22.14 83.6314 22.22 82.9647 22.22C82.4847 22.22 82.078 22.14 81.7447 21.98C81.4114 21.8067 81.1447 21.5733 80.9447 21.28C80.7447 20.9867 80.598 20.66 80.5047 20.3C80.4114 19.9267 80.3647 19.56 80.3647 19.2C80.3647 18.6933 80.418 18.26 80.5247 17.9C80.6314 17.5267 80.7914 17.2133 81.0047 16.96C81.2314 16.6933 81.5114 16.4733 81.8447 16.3C82.1914 16.1267 82.6047 15.9733 83.0847 15.84L84.6447 15.42C85.058 15.3133 85.3447 15.1667 85.5047 14.98C85.6647 14.7933 85.7447 14.52 85.7447 14.16C85.7447 13.7467 85.6447 13.4267 85.4447 13.2C85.258 12.96 84.9314 12.84 84.4647 12.84C84.038 12.84 83.718 12.9667 83.5047 13.22C83.2914 13.4733 83.1847 13.8133 83.1847 14.24V14.54H80.7047ZM90.9536 8.16H93.7136V11.24H95.3136V13.12H93.7136V18.94C93.7136 19.3667 93.7736 19.6733 93.8936 19.86C94.0269 20.0333 94.2936 20.12 94.6936 20.12C94.8003 20.12 94.9069 20.12 95.0136 20.12C95.1203 20.1067 95.2203 20.0933 95.3136 20.08V22C95.0069 22 94.7069 22.0067 94.4136 22.02C94.1336 22.0467 93.8336 22.06 93.5136 22.06C92.9803 22.06 92.5403 22.0267 92.1936 21.96C91.8603 21.88 91.6003 21.7333 91.4136 21.52C91.2403 21.2933 91.1203 21 91.0536 20.64C90.9869 20.28 90.9536 19.8267 90.9536 19.28V13.12H89.5536V11.24H90.9536V8.16ZM96.8716 8.16H99.6316V11.24H101.232V13.12H99.6316V18.94C99.6316 19.3667 99.6916 19.6733 99.8116 19.86C99.9449 20.0333 100.212 20.12 100.612 20.12C100.718 20.12 100.825 20.12 100.932 20.12C101.038 20.1067 101.138 20.0933 101.232 20.08V22C100.925 22 100.625 22.0067 100.332 22.02C100.052 22.0467 99.7516 22.06 99.4316 22.06C98.8982 22.06 98.4582 22.0267 98.1116 21.96C97.7782 21.88 97.5182 21.7333 97.3316 21.52C97.1582 21.2933 97.0382 21 96.9716 20.64C96.9049 20.28 96.8716 19.8267 96.8716 19.28V13.12H95.4716V11.24H96.8716V8.16ZM102.29 7.56H105.05V9.92H102.29V7.56ZM102.29 11.24H105.05V22H102.29V11.24ZM112.174 15.4C112.161 14.9867 112.134 14.6267 112.094 14.32C112.054 14 111.981 13.7333 111.874 13.52C111.781 13.2933 111.641 13.1267 111.454 13.02C111.281 12.9 111.054 12.84 110.774 12.84C110.494 12.84 110.261 12.9067 110.074 13.04C109.901 13.16 109.761 13.3267 109.654 13.54C109.548 13.74 109.468 13.9667 109.414 14.22C109.374 14.4733 109.354 14.7267 109.354 14.98V15.4H112.174ZM109.354 17.04V17.9C109.354 18.22 109.374 18.5333 109.414 18.84C109.468 19.1333 109.548 19.4 109.654 19.64C109.761 19.8667 109.901 20.0533 110.074 20.2C110.248 20.3333 110.461 20.4 110.714 20.4C111.181 20.4 111.521 20.2333 111.734 19.9C111.948 19.5667 112.094 19.06 112.174 18.38H114.654C114.601 19.6333 114.268 20.5867 113.654 21.24C113.041 21.8933 112.074 22.22 110.754 22.22C109.754 22.22 108.974 22.0533 108.414 21.72C107.854 21.3867 107.441 20.9467 107.174 20.4C106.908 19.8533 106.741 19.24 106.674 18.56C106.621 17.88 106.594 17.2 106.594 16.52C106.594 15.8 106.641 15.1067 106.734 14.44C106.841 13.7733 107.041 13.18 107.334 12.66C107.641 12.14 108.074 11.7267 108.634 11.42C109.194 11.1133 109.941 10.96 110.874 10.96C111.674 10.96 112.328 11.0933 112.834 11.36C113.354 11.6133 113.761 11.98 114.054 12.46C114.348 12.9267 114.548 13.5 114.654 14.18C114.761 14.8467 114.814 15.5933 114.814 16.42V17.04H109.354Z" fill="black"/>
<path opacity="0.7" d="M120.938 11.004H122.128V14.742H122.156C122.352 14.3407 122.66 14.0513 123.08 13.874C123.5 13.6873 123.962 13.594 124.466 13.594C125.026 13.594 125.511 13.6967 125.922 13.902C126.342 14.1073 126.687 14.3873 126.958 14.742C127.238 15.0873 127.448 15.4887 127.588 15.946C127.728 16.4033 127.798 16.8887 127.798 17.402C127.798 17.9153 127.728 18.4007 127.588 18.858C127.457 19.3153 127.252 19.7167 126.972 20.062C126.701 20.398 126.356 20.664 125.936 20.86C125.525 21.056 125.045 21.154 124.494 21.154C124.317 21.154 124.116 21.1353 123.892 21.098C123.677 21.0607 123.463 21 123.248 20.916C123.033 20.832 122.828 20.72 122.632 20.58C122.445 20.4307 122.287 20.2487 122.156 20.034H122.128V21H120.938V11.004ZM126.538 17.318C126.538 16.982 126.491 16.6553 126.398 16.338C126.314 16.0113 126.179 15.722 125.992 15.47C125.815 15.218 125.581 15.0173 125.292 14.868C125.012 14.7187 124.681 14.644 124.298 14.644C123.897 14.644 123.556 14.7233 123.276 14.882C122.996 15.0407 122.767 15.2507 122.59 15.512C122.413 15.764 122.282 16.0533 122.198 16.38C122.123 16.7067 122.086 17.038 122.086 17.374C122.086 17.7287 122.128 18.074 122.212 18.41C122.296 18.7367 122.427 19.026 122.604 19.278C122.791 19.53 123.029 19.7353 123.318 19.894C123.607 20.0433 123.957 20.118 124.368 20.118C124.779 20.118 125.119 20.0387 125.39 19.88C125.67 19.7213 125.894 19.5113 126.062 19.25C126.23 18.9887 126.351 18.69 126.426 18.354C126.501 18.018 126.538 17.6727 126.538 17.318ZM132.037 21.966C131.897 22.3207 131.757 22.6193 131.617 22.862C131.486 23.1047 131.337 23.3007 131.169 23.45C131.01 23.6087 130.828 23.7207 130.623 23.786C130.427 23.8607 130.198 23.898 129.937 23.898C129.797 23.898 129.657 23.8887 129.517 23.87C129.377 23.8513 129.241 23.8187 129.111 23.772V22.68C129.213 22.7267 129.33 22.764 129.461 22.792C129.601 22.8293 129.717 22.848 129.811 22.848C130.053 22.848 130.254 22.7873 130.413 22.666C130.581 22.554 130.707 22.3907 130.791 22.176L131.281 20.958L128.411 13.762H129.755L131.869 19.684H131.897L133.927 13.762H135.187L132.037 21.966ZM140.315 11.004H142.135L145.285 19.404L148.449 11.004H150.269V21H149.009V12.684H148.981L145.859 21H144.725L141.603 12.684H141.575V21H140.315V11.004ZM153.547 12.46H152.357V11.004H153.547V12.46ZM152.357 13.762H153.547V21H152.357V13.762ZM156.65 12.46H155.46V11.004H156.65V12.46ZM156.65 21.91C156.65 22.554 156.491 23.0207 156.174 23.31C155.866 23.6087 155.446 23.758 154.914 23.758C154.699 23.758 154.499 23.7393 154.312 23.702V22.68C154.359 22.6893 154.401 22.694 154.438 22.694C154.466 22.7033 154.499 22.708 154.536 22.708H154.788C155.049 22.708 155.227 22.6333 155.32 22.484C155.413 22.344 155.46 22.0873 155.46 21.714V13.762H156.65V21.91ZM159.754 12.46H158.564V11.004H159.754V12.46ZM158.564 13.762H159.754V21H158.564V13.762ZM166.511 16.086C166.418 15.6287 166.222 15.274 165.923 15.022C165.625 14.77 165.223 14.644 164.719 14.644C164.29 14.644 163.931 14.7233 163.641 14.882C163.352 15.0407 163.119 15.2507 162.941 15.512C162.773 15.7733 162.652 16.0767 162.577 16.422C162.503 16.758 162.465 17.108 162.465 17.472C162.465 17.808 162.503 18.1347 162.577 18.452C162.661 18.7693 162.787 19.054 162.955 19.306C163.123 19.5487 163.343 19.7447 163.613 19.894C163.884 20.0433 164.206 20.118 164.579 20.118C165.167 20.118 165.625 19.964 165.951 19.656C166.287 19.348 166.493 18.914 166.567 18.354H167.785C167.655 19.25 167.319 19.9407 166.777 20.426C166.245 20.9113 165.517 21.154 164.593 21.154C164.043 21.154 163.553 21.0653 163.123 20.888C162.703 20.7107 162.349 20.4587 162.059 20.132C161.779 19.8053 161.565 19.418 161.415 18.97C161.275 18.5127 161.205 18.0133 161.205 17.472C161.205 16.9307 161.275 16.4267 161.415 15.96C161.555 15.484 161.765 15.0733 162.045 14.728C162.335 14.3733 162.694 14.098 163.123 13.902C163.553 13.6967 164.052 13.594 164.621 13.594C165.032 13.594 165.415 13.6453 165.769 13.748C166.133 13.8413 166.451 13.9907 166.721 14.196C167.001 14.4013 167.23 14.6627 167.407 14.98C167.585 15.288 167.697 15.6567 167.743 16.086H166.511ZM169.187 11.004H170.377V16.926L173.681 13.762H175.277L172.407 16.394L175.487 21H173.975L171.497 17.22L170.377 18.256V21H169.187V11.004Z" fill="black"/>
<rect width="30" height="30" rx="8" fill="#E4645E"/>
<rect x="17.3214" y="8.3335" width="7.14293" height="15.2382" rx="2" fill="#F4F4F4"/>
<rect x="5.53563" y="11.1906" width="5.71434" height="12.3811" rx="2" fill="#EEEEEE"/>
<rect x="7.67851" y="8.3335" width="7.14293" height="15.2382" rx="2" fill="#F4F4F4"/>
<rect x="12.0833" y="6.42859" width="9.5239" height="17.143" rx="2" fill="white"/>
<path d="M16.9868 16.0123C16.3208 16.0123 15.6548 15.8337 15.6548 15.8337C15.6548 15.8337 16.071 16.548 16.9868 16.548C17.0515 16.548 17.1123 16.546 17.1694 16.5421C17.7208 16.5052 17.5979 16.0187 17.0454 16.0126C17.0261 16.0124 17.0066 16.0123 16.9868 16.0123Z" fill="#E4645E"/>
<circle cx="14.9405" cy="14.1668" r="0.714292" fill="#E4645E"/>
<circle cx="18.7501" cy="14.1669" r="0.714292" fill="#E4645E"/>
</svg>
