<svg width="113" height="30" viewBox="0 0 113 30" fill="none" xmlns="http://www.w3.org/2000/svg">
<rect width="30" height="30" rx="7" fill="#B42D27"/>
<rect x="17.4528" y="7.95618" width="7.54717" height="16.1006" rx="2" fill="#E3E3E3"/>
<rect x="5" y="10.975" width="6.03774" height="13.0818" rx="2" fill="#C9C9C9"/>
<rect x="7.26416" y="7.95618" width="7.54717" height="16.1006" rx="2" fill="#E3E3E3"/>
<rect x="11.9182" y="5.94348" width="10.0629" height="18.1132" rx="2" fill="white"/>
<path d="M17.0992 16.0695C16.3955 16.0695 15.6918 15.8809 15.6918 15.8809C15.6918 15.8809 16.1316 16.6356 17.0992 16.6356C17.1892 16.6356 17.2721 16.6318 17.3483 16.625C17.8987 16.5756 17.7703 16.0825 17.2178 16.0708C17.1793 16.07 17.1398 16.0695 17.0992 16.0695Z" fill="#B42D27"/>
<circle cx="14.9371" cy="14.1196" r="0.754717" fill="#B42D27"/>
<circle cx="18.9623" cy="14.1198" r="0.754717" fill="#B42D27"/>
<path d="M39.065 12V1.695H41.27L46.25 8.355V1.695H48.455V12H46.25L41.27 5.34V12H39.065ZM53.7437 4.065C55.7687 4.065 57.1637 5.34 57.1637 7.365V12H55.0487V11.22C54.4937 11.835 53.6087 12.18 52.7537 12.18C51.1037 12.18 49.8437 11.19 49.8437 9.705C49.8437 8.175 51.2687 7.125 53.0537 7.125C53.6837 7.125 54.3887 7.26 55.0487 7.53V7.365C55.0487 6.54 54.5237 5.82 53.2487 5.82C52.5287 5.82 51.8537 6.06 51.2387 6.375L50.5037 4.92C51.5987 4.365 52.6637 4.065 53.7437 4.065ZM53.2487 10.665C54.0887 10.665 54.8837 10.275 55.0487 9.555V8.85C54.5537 8.655 53.9687 8.55 53.3687 8.55C52.5737 8.55 51.9287 9.015 51.9287 9.645C51.9287 10.275 52.4987 10.665 53.2487 10.665ZM61.1403 12L57.7803 4.245H60.0753L62.1603 9.48L64.2003 4.245H66.4803L63.1653 12H61.1403ZM68.6463 3.18C67.9713 3.18 67.4463 2.64 67.4463 1.98C67.4463 1.365 67.9713 0.809999 68.6463 0.809999C69.2913 0.809999 69.8313 1.365 69.8313 1.98C69.8313 2.64 69.2913 3.18 68.6463 3.18ZM67.5363 12V4.245H69.7263V12H67.5363ZM77.0131 4.245H79.2031V11.175C79.2031 13.17 77.4781 14.58 75.0331 14.58C73.6681 14.58 72.3931 14.145 71.6131 13.545L72.3781 12C72.8881 12.45 73.8031 12.735 74.7031 12.735C76.1131 12.735 77.0131 12.09 77.0131 11.085V10.215C76.3981 10.98 75.4831 11.43 74.4481 11.43C72.4831 11.43 70.9981 9.9 70.9981 7.74C70.9981 5.58 72.4831 4.065 74.4481 4.065C75.4831 4.065 76.4881 4.56 77.0131 5.295V4.245ZM75.1381 9.585C76.2331 9.585 77.0131 8.82 77.0131 7.74C77.0131 6.66 76.2331 5.91 75.1381 5.91C74.0431 5.91 73.2631 6.66 73.2631 7.74C73.2631 8.82 74.0431 9.585 75.1381 9.585ZM84.3003 4.065C86.3253 4.065 87.7203 5.34 87.7203 7.365V12H85.6053V11.22C85.0503 11.835 84.1653 12.18 83.3103 12.18C81.6603 12.18 80.4003 11.19 80.4003 9.705C80.4003 8.175 81.8253 7.125 83.6103 7.125C84.2403 7.125 84.9453 7.26 85.6053 7.53V7.365C85.6053 6.54 85.0803 5.82 83.8053 5.82C83.0853 5.82 82.4103 6.06 81.7953 6.375L81.0603 4.92C82.1553 4.365 83.2203 4.065 84.3003 4.065ZM83.8053 10.665C84.6453 10.665 85.4403 10.275 85.6053 9.555V8.85C85.1103 8.655 84.5253 8.55 83.9253 8.55C83.1303 8.55 82.4853 9.015 82.4853 9.645C82.4853 10.275 83.0553 10.665 83.8053 10.665ZM93.342 10.08L93.867 11.505C93.417 11.91 92.712 12.18 92.097 12.18C90.717 12.18 89.757 11.205 89.757 9.81V6.015H88.692V4.245H89.757V2.115H91.872V4.245H93.552V6.015H91.872V9.465C91.872 9.975 92.187 10.335 92.607 10.335C92.907 10.335 93.192 10.23 93.342 10.08ZM99.26 10.08L99.785 11.505C99.335 11.91 98.63 12.18 98.015 12.18C96.635 12.18 95.675 11.205 95.675 9.81V6.015H94.61V4.245H95.675V2.115H97.79V4.245H99.47V6.015H97.79V9.465C97.79 9.975 98.105 10.335 98.525 10.335C98.825 10.335 99.11 10.23 99.26 10.08ZM102.118 3.18C101.443 3.18 100.918 2.64 100.918 1.98C100.918 1.365 101.443 0.809999 102.118 0.809999C102.763 0.809999 103.303 1.365 103.303 1.98C103.303 2.64 102.763 3.18 102.118 3.18ZM101.008 12V4.245H103.198V12H101.008ZM108.52 10.485C109.225 10.485 110.035 10.17 110.53 9.72L111.76 10.98C111.07 11.7 109.735 12.18 108.595 12.18C106.285 12.18 104.44 10.485 104.44 8.1C104.44 5.76 106.21 4.065 108.475 4.065C110.905 4.065 112.375 5.82 112.375 8.7H106.525C106.72 9.75 107.455 10.485 108.52 10.485ZM108.49 5.76C107.515 5.76 106.78 6.405 106.54 7.395H110.275C110.095 6.435 109.48 5.76 108.49 5.76Z" fill="#292D32"/>
<g opacity="0.6">
<path d="M42.186 20.123C43.954 20.123 45.28 21.579 45.28 23.633C45.28 25.7 43.954 27.156 42.186 27.156C41.107 27.156 40.249 26.623 39.742 25.739V27H38.767V17.913H39.742V21.54C40.249 20.656 41.107 20.123 42.186 20.123ZM42.004 26.285C43.317 26.285 44.253 25.18 44.253 23.633C44.253 22.086 43.317 20.994 42.004 20.994C40.678 20.994 39.742 22.086 39.742 23.633C39.742 25.18 40.678 26.285 42.004 26.285ZM47.1866 29.34C46.7966 29.34 46.4326 29.262 46.1206 29.119L46.3546 28.287C46.5886 28.404 46.8616 28.456 47.1476 28.456C47.5766 28.456 47.8626 28.313 48.1226 27.858L48.5126 27.026L45.5876 20.279H46.6666L49.0196 25.869L51.2426 20.279H52.2956L49.2276 27.754C48.7596 28.898 48.1096 29.327 47.1866 29.34ZM57.2572 27V18.069H58.2712L61.5862 24.296L64.9012 18.069H65.9152V27H64.9012V20.253L61.5862 26.48L58.2712 20.253V27H57.2572ZM68.1676 19.057C67.8036 19.057 67.5176 18.758 67.5176 18.407C67.5176 18.069 67.8036 17.77 68.1676 17.77C68.5186 17.77 68.8046 18.069 68.8046 18.407C68.8046 18.758 68.5186 19.057 68.1676 19.057ZM67.6736 27V20.279H68.6486V27H67.6736ZM70.6565 19.057C70.2925 19.057 70.0065 18.758 70.0065 18.407C70.0065 18.069 70.2925 17.77 70.6565 17.77C71.0075 17.77 71.2935 18.069 71.2935 18.407C71.2935 18.758 71.0075 19.057 70.6565 19.057ZM69.4995 29.314C69.1355 29.314 68.7065 29.223 68.4465 29.106L68.6025 28.3C68.8105 28.378 69.1615 28.443 69.4345 28.443C69.8635 28.443 70.1625 28.092 70.1625 27.598V20.279H71.1375V27.598C71.1375 28.599 70.4615 29.314 69.4995 29.314ZM73.1442 19.057C72.7802 19.057 72.4942 18.758 72.4942 18.407C72.4942 18.069 72.7802 17.77 73.1442 17.77C73.4952 17.77 73.7812 18.069 73.7812 18.407C73.7812 18.758 73.4952 19.057 73.1442 19.057ZM72.6502 27V20.279H73.6252V27H72.6502ZM78.3111 27.156C76.4261 27.156 74.8271 25.544 74.8271 23.633C74.8271 21.722 76.4261 20.123 78.3111 20.123C79.2211 20.123 80.0661 20.5 80.7031 21.111L80.0271 21.774C79.5851 21.293 78.9741 20.994 78.3111 20.994C76.9721 20.994 75.8541 22.203 75.8541 23.633C75.8541 25.076 76.9721 26.285 78.3111 26.285C78.9871 26.285 79.6111 25.973 80.0661 25.466L80.7421 26.129C80.1051 26.766 79.2471 27.156 78.3111 27.156ZM81.8803 27V17.913H82.8553V23.997L86.5343 20.279H87.7823L84.7533 23.36L87.6133 27H86.3913L84.0643 24.023L82.8553 25.219V27H81.8803Z" fill="#292D32"/>
</g>
</svg>
