<svg width="185" height="24" viewBox="0 0 185 24" fill="none" xmlns="http://www.w3.org/2000/svg">
<rect width="24" height="24" rx="12" fill="#B42D27"/>
<rect x="13.9623" y="6.36499" width="6.03774" height="12.8805" rx="2" fill="#E3E3E3"/>
<rect x="4" y="8.77991" width="4.83019" height="10.4654" rx="2" fill="#C9C9C9"/>
<rect x="5.81133" y="6.36499" width="6.03774" height="12.8805" rx="2" fill="#E3E3E3"/>
<rect x="9.53459" y="4.75476" width="8.05032" height="14.4906" rx="2" fill="white"/>
<path d="M13.6794 12.8557C13.1164 12.8557 12.5535 12.7047 12.5535 12.7047C12.5535 12.7047 12.9053 13.3085 13.6794 13.3085C13.7159 13.3085 13.7509 13.3077 13.7845 13.3062C14.2784 13.2846 14.1738 12.8557 13.6794 12.8557Z" fill="#B42D27"/>
<circle cx="11.9497" cy="11.2957" r="0.603774" fill="#B42D27"/>
<circle cx="15.1698" cy="11.2958" r="0.603774" fill="#B42D27"/>
<path d="M32.32 4.72L35.8 14.5H35.84V4.72H38.48V19H35.2L31.68 9H31.64V19H29V4.72H32.32ZM46.4444 13.62L45.0644 7.2H45.0244L43.6444 13.62H46.4444ZM46.8244 4.72L50.6044 19H47.6044L46.9444 15.98H43.1444L42.4844 19H39.4844L43.2644 4.72H46.8244ZM53.347 4.72L55.367 15.28H55.427L57.547 4.72H60.527L57.247 19H53.547L50.267 4.72H53.347ZM61.7181 19V4.72H64.5981V19H61.7181ZM73.0744 8.96C73.0744 8.69333 73.041 8.42 72.9744 8.14C72.921 7.86 72.8277 7.60667 72.6944 7.38C72.561 7.14 72.3877 6.94667 72.1744 6.8C71.9744 6.64 71.7277 6.56 71.4344 6.56C70.741 6.56 70.241 6.94667 69.9344 7.72C69.6277 8.49333 69.4744 9.77333 69.4744 11.56C69.4744 12.4133 69.501 13.1867 69.5544 13.88C69.6077 14.5733 69.701 15.1667 69.8344 15.66C69.981 16.14 70.181 16.5133 70.4344 16.78C70.701 17.0333 71.041 17.16 71.4544 17.16C71.6277 17.16 71.8144 17.1133 72.0144 17.02C72.2277 16.9267 72.421 16.7867 72.5944 16.6C72.781 16.4133 72.9344 16.18 73.0544 15.9C73.1744 15.6067 73.2344 15.2667 73.2344 14.88V13.42H71.3344V11.3H75.9944V19H73.8744V17.68H73.8344C73.4877 18.24 73.0677 18.64 72.5744 18.88C72.0944 19.1067 71.5144 19.22 70.8344 19.22C69.9544 19.22 69.2344 19.0667 68.6744 18.76C68.1277 18.4533 67.6944 17.98 67.3744 17.34C67.0677 16.7 66.861 15.9133 66.7544 14.98C66.6477 14.0333 66.5944 12.94 66.5944 11.7C66.5944 10.5 66.6677 9.44667 66.8144 8.54C66.9744 7.63333 67.241 6.88 67.6144 6.28C67.9877 5.66667 68.481 5.20667 69.0944 4.9C69.7077 4.59333 70.4744 4.44 71.3944 4.44C72.9677 4.44 74.101 4.83333 74.7944 5.62C75.4877 6.39333 75.8344 7.50667 75.8344 8.96H73.0744ZM83.8077 13.62L82.4277 7.2H82.3877L81.0077 13.62H83.8077ZM84.1877 4.72L87.9677 19H84.9677L84.3077 15.98H80.5077L79.8477 19H76.8477L80.6277 4.72H84.1877ZM96.2272 4.72V7.08H93.1072V19H90.2272V7.08H87.1072V4.72H96.2272ZM105.837 4.72V7.08H102.717V19H99.8366V7.08H96.7166V4.72H105.837ZM107.226 19V4.72H110.106V19H107.226ZM120.222 4.72V7.08H115.122V10.44H119.922V12.8H115.122V16.64H120.422V19H112.242V4.72H120.222Z" fill="#292D32"/>
<g opacity="0.7">
<path d="M125.938 7.504H127.128V11.242H127.156C127.352 10.8407 127.66 10.5513 128.08 10.374C128.5 10.1873 128.962 10.094 129.466 10.094C130.026 10.094 130.511 10.1967 130.922 10.402C131.342 10.6073 131.687 10.8873 131.958 11.242C132.238 11.5873 132.448 11.9887 132.588 12.446C132.728 12.9033 132.798 13.3887 132.798 13.902C132.798 14.4153 132.728 14.9007 132.588 15.358C132.457 15.8153 132.252 16.2167 131.972 16.562C131.701 16.898 131.356 17.164 130.936 17.36C130.525 17.556 130.045 17.654 129.494 17.654C129.317 17.654 129.116 17.6353 128.892 17.598C128.677 17.5607 128.463 17.5 128.248 17.416C128.033 17.332 127.828 17.22 127.632 17.08C127.445 16.9307 127.287 16.7487 127.156 16.534H127.128V17.5H125.938V7.504ZM131.538 13.818C131.538 13.482 131.491 13.1553 131.398 12.838C131.314 12.5113 131.179 12.222 130.992 11.97C130.815 11.718 130.581 11.5173 130.292 11.368C130.012 11.2187 129.681 11.144 129.298 11.144C128.897 11.144 128.556 11.2233 128.276 11.382C127.996 11.5407 127.767 11.7507 127.59 12.012C127.413 12.264 127.282 12.5533 127.198 12.88C127.123 13.2067 127.086 13.538 127.086 13.874C127.086 14.2287 127.128 14.574 127.212 14.91C127.296 15.2367 127.427 15.526 127.604 15.778C127.791 16.03 128.029 16.2353 128.318 16.394C128.607 16.5433 128.957 16.618 129.368 16.618C129.779 16.618 130.119 16.5387 130.39 16.38C130.67 16.2213 130.894 16.0113 131.062 15.75C131.23 15.4887 131.351 15.19 131.426 14.854C131.501 14.518 131.538 14.1727 131.538 13.818ZM137.037 18.466C136.897 18.8207 136.757 19.1193 136.617 19.362C136.486 19.6047 136.337 19.8007 136.169 19.95C136.01 20.1087 135.828 20.2207 135.623 20.286C135.427 20.3607 135.198 20.398 134.937 20.398C134.797 20.398 134.657 20.3887 134.517 20.37C134.377 20.3513 134.241 20.3187 134.111 20.272V19.18C134.213 19.2267 134.33 19.264 134.461 19.292C134.601 19.3293 134.717 19.348 134.811 19.348C135.053 19.348 135.254 19.2873 135.413 19.166C135.581 19.054 135.707 18.8907 135.791 18.676L136.281 17.458L133.411 10.262H134.755L136.869 16.184H136.897L138.927 10.262H140.187L137.037 18.466ZM145.161 7.504H148.255L150.593 14.378H150.621L152.833 7.504H155.927V17.5H153.869V10.416H153.841L151.391 17.5H149.697L147.247 10.486H147.219V17.5H145.161V7.504ZM159.696 9.142H157.708V7.504H159.696V9.142ZM157.708 10.262H159.696V17.5H157.708V10.262ZM163.432 9.142H161.444V7.504H163.432V9.142ZM160.254 18.34C160.357 18.3773 160.497 18.396 160.674 18.396C160.879 18.396 161.057 18.354 161.206 18.27C161.365 18.1953 161.444 18.0227 161.444 17.752V10.262H163.432V17.85C163.432 18.2233 163.39 18.5453 163.306 18.816C163.231 19.0867 163.096 19.3107 162.9 19.488C162.713 19.6747 162.457 19.81 162.13 19.894C161.803 19.9873 161.388 20.034 160.884 20.034C160.651 20.034 160.441 20.0153 160.254 19.978V18.34ZM167.202 9.142H165.214V7.504H167.202V9.142ZM165.214 10.262H167.202V17.5H165.214V10.262ZM173.696 12.81C173.565 11.9793 173.075 11.564 172.226 11.564C171.908 11.564 171.642 11.6387 171.428 11.788C171.213 11.928 171.036 12.1147 170.896 12.348C170.765 12.572 170.672 12.824 170.616 13.104C170.56 13.3747 170.532 13.6453 170.532 13.916C170.532 14.1773 170.56 14.4433 170.616 14.714C170.672 14.9847 170.76 15.232 170.882 15.456C171.012 15.6707 171.185 15.848 171.4 15.988C171.614 16.128 171.876 16.198 172.184 16.198C172.66 16.198 173.024 16.0673 173.276 15.806C173.537 15.5353 173.7 15.176 173.766 14.728H175.684C175.553 15.6893 175.18 16.422 174.564 16.926C173.948 17.43 173.159 17.682 172.198 17.682C171.656 17.682 171.157 17.5933 170.7 17.416C170.252 17.2293 169.869 16.9727 169.552 16.646C169.234 16.3193 168.987 15.932 168.81 15.484C168.632 15.0267 168.544 14.5273 168.544 13.986C168.544 13.426 168.623 12.908 168.782 12.432C168.95 11.9467 169.192 11.5313 169.51 11.186C169.827 10.8313 170.214 10.556 170.672 10.36C171.129 10.164 171.652 10.066 172.24 10.066C172.669 10.066 173.08 10.122 173.472 10.234C173.873 10.346 174.228 10.5187 174.536 10.752C174.853 10.976 175.11 11.2607 175.306 11.606C175.502 11.942 175.614 12.3433 175.642 12.81H173.696ZM176.989 7.504H178.977V12.866L181.483 10.262H183.835L181.105 12.922L184.143 17.5H181.735L179.747 14.266L178.977 15.008V17.5H176.989V7.504Z" fill="#292D32"/>
</g>
</svg>
