<svg width="130" height="28" viewBox="0 0 130 28" fill="none" xmlns="http://www.w3.org/2000/svg">
<rect width="28" height="28" rx="8" fill="#E6281C"/>
<rect x="16.1667" y="7.77795" width="6.66673" height="14.2224" rx="2" fill="#F4F4F4"/>
<rect x="5.16658" y="10.4445" width="5.33338" height="11.5557" rx="2" fill="#EEEEEE"/>
<rect x="7.16661" y="7.77795" width="6.66673" height="14.2224" rx="2" fill="#F4F4F4"/>
<rect x="11.2777" y="6" width="8.88897" height="16.0002" rx="2" fill="white"/>
<path d="M15.8543 14.9449C15.2327 14.9449 14.6111 14.7782 14.6111 14.7782C14.6111 14.7782 14.9996 15.4449 15.8543 15.4449C15.8946 15.4449 15.9333 15.444 15.9704 15.4424C16.5158 15.4184 16.4003 14.9449 15.8543 14.9449Z" fill="#E6281C"/>
<circle cx="13.9445" cy="13.2223" r="0.666673" fill="#E6281C"/>
<circle cx="17.5" cy="13.2225" r="0.666673" fill="#E6281C"/>
<path d="M36.536 6.506L40.19 16.775H40.232V6.506H43.004V21.5H39.56L35.864 11H35.822V21.5H33.05V6.506H36.536ZM51.3666 15.851L49.9176 9.11H49.8756L48.4266 15.851H51.3666ZM51.7656 6.506L55.7346 21.5H52.5846L51.8916 18.329H47.9016L47.2086 21.5H44.0586L48.0276 6.506H51.7656ZM58.6144 6.506L60.7354 17.594H60.7984L63.0244 6.506H66.1534L62.7094 21.5H58.8244L55.3804 6.506H58.6144ZM67.404 21.5V6.506H70.428V21.5H67.404ZM79.3281 10.958C79.3281 10.678 79.2931 10.391 79.2231 10.097C79.1671 9.803 79.0691 9.537 78.9291 9.299C78.7891 9.047 78.6071 8.844 78.3831 8.69C78.1731 8.522 77.9141 8.438 77.6061 8.438C76.8781 8.438 76.3531 8.844 76.0311 9.656C75.7091 10.468 75.5481 11.812 75.5481 13.688C75.5481 14.584 75.5761 15.396 75.6321 16.124C75.6881 16.852 75.7861 17.475 75.9261 17.993C76.0801 18.497 76.2901 18.889 76.5561 19.169C76.8361 19.435 77.1931 19.568 77.6271 19.568C77.8091 19.568 78.0051 19.519 78.2151 19.421C78.4391 19.323 78.6421 19.176 78.8241 18.98C79.0201 18.784 79.1811 18.539 79.3071 18.245C79.4331 17.937 79.4961 17.58 79.4961 17.174V15.641H77.5011V13.415H82.3941V21.5H80.1681V20.114H80.1261C79.7621 20.702 79.3211 21.122 78.8031 21.374C78.2991 21.612 77.6901 21.731 76.9761 21.731C76.0521 21.731 75.2961 21.57 74.7081 21.248C74.1341 20.926 73.6791 20.429 73.3431 19.757C73.0211 19.085 72.8041 18.259 72.6921 17.279C72.5801 16.285 72.5241 15.137 72.5241 13.835C72.5241 12.575 72.6011 11.469 72.7551 10.517C72.9231 9.565 73.2031 8.774 73.5951 8.144C73.9871 7.5 74.5051 7.017 75.1491 6.695C75.7931 6.373 76.5981 6.212 77.5641 6.212C79.2161 6.212 80.4061 6.625 81.1341 7.451C81.8621 8.263 82.2261 9.432 82.2261 10.958H79.3281ZM90.598 15.851L89.149 9.11H89.107L87.658 15.851H90.598ZM90.997 6.506L94.966 21.5H91.816L91.123 18.329H87.133L86.44 21.5H83.29L87.259 6.506H90.997ZM103.639 6.506V8.984H100.363V21.5H97.3385V8.984H94.0625V6.506H103.639ZM113.728 6.506V8.984H110.452V21.5H107.428V8.984H104.152V6.506H113.728ZM115.187 21.5V6.506H118.211V21.5H115.187ZM128.833 6.506V8.984H123.478V12.512H128.518V14.99H123.478V19.022H129.043V21.5H120.454V6.506H128.833Z" fill="black"/>
</svg>
