<svg width="24" height="24" viewBox="0 0 24 24" fill="none" xmlns="http://www.w3.org/2000/svg">
<g clip-path="url(#clip0_183_359)">
<path d="M9.7212 7.09062C10.6112 4.22289 11.0562 2.78902 11.8582 2.69348C11.9525 2.68225 12.0476 2.68225 12.1419 2.69348C12.9439 2.78902 13.3889 4.22289 14.2789 7.09062C14.5257 7.88587 14.6491 8.28349 14.9347 8.5277C14.9714 8.55909 15.0098 8.58828 15.0496 8.61513C15.3597 8.82397 15.7591 8.82397 16.5578 8.82397C19.438 8.82397 20.8781 8.82397 21.2127 9.59293C21.252 9.68332 21.2814 9.77809 21.3004 9.87542C21.4614 10.7034 20.2963 11.5896 17.9662 13.362C17.32 13.8534 16.9969 14.0992 16.8633 14.459C16.8461 14.5052 16.8315 14.5524 16.8194 14.6004C16.7255 14.9737 16.8489 15.3713 17.0957 16.1666C17.9858 19.0343 18.4308 20.4682 17.8356 21.039C17.7657 21.106 17.6887 21.1646 17.6061 21.2135C16.9037 21.6297 15.7386 20.7436 13.4085 18.9712C12.7623 18.4797 12.4392 18.234 12.0711 18.2121C12.0238 18.2093 11.9763 18.2093 11.929 18.2121C11.5609 18.234 11.2378 18.4797 10.5916 18.9712C8.26152 20.7436 7.09645 21.6297 6.39402 21.2135C6.31145 21.1646 6.23444 21.106 6.16448 21.039C5.56933 20.4682 6.01435 19.0343 6.90438 16.1666C7.15119 15.3713 7.2746 14.9737 7.1807 14.6004C7.16863 14.5524 7.15397 14.5052 7.1368 14.459C7.00318 14.0992 6.6801 13.8534 6.03394 13.362C3.7038 11.5896 2.53874 10.7034 2.69976 9.87542C2.71869 9.77809 2.7481 9.68332 2.78743 9.59293C3.12204 8.82397 4.56214 8.82397 7.44235 8.82397C8.24105 8.82397 8.6404 8.82397 8.95049 8.61513C8.99035 8.58828 9.02873 8.55909 9.06544 8.5277C9.35098 8.28349 9.47439 7.88587 9.7212 7.09062Z" fill="black"/>
</g>
<defs>
<clipPath id="clip0_183_359">
<rect width="24" height="24" fill="white"/>
</clipPath>
</defs>
</svg>
