<svg width="28" height="28" viewBox="0 0 28 28" fill="none" xmlns="http://www.w3.org/2000/svg">
<path d="M11.165 21.9566C10.9433 21.9566 10.7217 21.8749 10.5467 21.6999L3.465 14.6182C3.12667 14.2799 3.12667 13.7199 3.465 13.3816L10.5467 6.29989C10.885 5.96156 11.445 5.96156 11.7833 6.29989C12.1217 6.63823 12.1217 7.19823 11.7833 7.53656L5.32 13.9999L11.7833 20.4632C12.1217 20.8016 12.1217 21.3616 11.7833 21.6999C11.62 21.8749 11.3867 21.9566 11.165 21.9566Z" fill="black"/>
<path d="M23.9167 14.875H4.28167C3.80333 14.875 3.40667 14.4783 3.40667 14C3.40667 13.5217 3.80333 13.125 4.28167 13.125H23.9167C24.395 13.125 24.7917 13.5217 24.7917 14C24.7917 14.4783 24.395 14.875 23.9167 14.875Z" fill="black"/>
</svg>
