<svg width="161" height="41" viewBox="0 0 161 41" fill="none" xmlns="http://www.w3.org/2000/svg">
<rect width="41" height="41" rx="9" fill="#F0C808"/>
<path d="M23.8312 16.0582C23.8312 14.0704 23.8312 13.0765 24.2836 12.349C24.5266 11.9583 24.8562 11.6286 25.247 11.3856C25.9745 10.9332 26.9684 10.9332 28.9562 10.9332V10.9332C30.944 10.9332 31.9379 10.9332 32.6654 11.3856C33.0562 11.6286 33.3858 11.9583 33.6288 12.349C34.0812 13.0765 34.0812 14.0704 34.0812 16.0582V27.6749C34.0812 29.6627 34.0812 30.6566 33.6288 31.3841C33.3858 31.7749 33.0562 32.1045 32.6654 32.3475C31.9379 32.7999 30.944 32.7999 28.9562 32.7999V32.7999C26.9684 32.7999 25.9745 32.7999 25.247 32.3475C24.8562 32.1045 24.5266 31.7749 24.2836 31.3841C23.8312 30.6566 23.8312 29.6627 23.8312 27.6749V16.0582Z" fill="#25282D"/>
<rect x="6.9187" y="15.0333" width="8.2" height="17.7667" rx="3" fill="#2C2F34"/>
<path d="M9.99365 16.0582C9.99365 14.0704 9.99365 13.0765 10.446 12.349C10.689 11.9583 11.0187 11.6286 11.4094 11.3856C12.137 10.9332 13.1309 10.9332 15.1187 10.9332V10.9332C17.1065 10.9332 18.1003 10.9332 18.8279 11.3856C19.2186 11.6286 19.5483 11.9583 19.7913 12.349C20.2437 13.0765 20.2437 14.0704 20.2437 16.0582V27.6749C20.2437 29.6627 20.2437 30.6566 19.7913 31.3841C19.5483 31.7749 19.2186 32.1045 18.8279 32.3475C18.1003 32.7999 17.1065 32.7999 15.1187 32.7999V32.7999C13.1309 32.7999 12.137 32.7999 11.4094 32.3475C11.0187 32.1045 10.689 31.7749 10.446 31.3841C9.99365 30.6566 9.99365 29.6627 9.99365 27.6749V16.0582Z" fill="#25282D"/>
<path d="M16.3146 14.2C16.3146 11.3715 16.3146 9.95731 17.1933 9.07863C18.0719 8.19995 19.4861 8.19995 22.3146 8.19995H23.9812C26.8097 8.19995 28.2239 8.19995 29.1026 9.07863C29.9812 9.95731 29.9812 11.3715 29.9812 14.2V26.7999C29.9812 29.6284 29.9812 31.0426 29.1026 31.9213C28.2239 32.7999 26.8097 32.7999 23.9812 32.7999H22.3146C19.4861 32.7999 18.0719 32.7999 17.1933 31.9213C16.3146 31.0426 16.3146 29.6284 16.3146 26.7999V14.2Z" fill="#0D1117"/>
<path d="M23.2333 24.3267C22.0933 24.1362 20.5 23.37 20.5 23.37C20.5 23.37 21.7583 25.2833 23.2333 25.2833C24.7083 25.2833 25.9667 24.3267 25.9667 24.3267C25.9667 24.3267 24.2641 24.4989 23.2333 24.3267Z" fill="#F0C808"/>
<ellipse cx="26.5361" cy="19.1845" rx="1.025" ry="1.07625" fill="#F0C808"/>
<ellipse cx="19.9305" cy="19.1845" rx="1.025" ry="1.07625" fill="#F0C808"/>
<path d="M61.0728 7.09091V18H59.0806L54.3345 11.1339H54.2546V18H51.9482V7.09091H53.9723L58.6811 13.9517H58.777V7.09091H61.0728ZM64.8189 18.1545C64.2969 18.1545 63.8317 18.0639 63.4233 17.8828C63.0149 17.6982 62.6918 17.4265 62.4539 17.0678C62.2195 16.7056 62.1023 16.2546 62.1023 15.7148C62.1023 15.2603 62.1857 14.8786 62.3526 14.5696C62.5195 14.2607 62.7468 14.0121 63.0345 13.8239C63.3221 13.6357 63.6488 13.4936 64.0146 13.3977C64.3839 13.3018 64.771 13.2344 65.1758 13.1953C65.6517 13.1456 66.0352 13.0994 66.3264 13.0568C66.6176 13.0107 66.8289 12.9432 66.9602 12.8544C67.0916 12.7656 67.1573 12.6342 67.1573 12.4602V12.4283C67.1573 12.0909 67.0508 11.8299 66.8377 11.6452C66.6282 11.4606 66.3299 11.3683 65.9428 11.3683C65.5345 11.3683 65.2095 11.4588 64.9681 11.6399C64.7266 11.8175 64.5668 12.0412 64.4887 12.3111L62.3899 12.1406C62.4965 11.6435 62.706 11.2138 63.0185 10.8516C63.331 10.4858 63.734 10.2053 64.2276 10.0099C64.7248 9.81108 65.3001 9.71165 65.9535 9.71165C66.408 9.71165 66.8431 9.76491 67.2585 9.87145C67.6776 9.97798 68.0487 10.1431 68.3718 10.3668C68.6985 10.5906 68.956 10.8782 69.1442 11.2298C69.3324 11.5778 69.4265 11.995 69.4265 12.4815V18H67.2745V16.8654H67.2106C67.0792 17.1211 66.9034 17.3466 66.6833 17.5419C66.4631 17.7337 66.1985 17.8846 65.8896 17.9947C65.5806 18.1012 65.2237 18.1545 64.8189 18.1545ZM65.4688 16.5884C65.8026 16.5884 66.0973 16.5227 66.353 16.3913C66.6087 16.2564 66.8093 16.0753 66.9549 15.848C67.1005 15.6207 67.1733 15.3633 67.1733 15.0756V14.2074C67.1023 14.2536 67.0046 14.2962 66.8803 14.3352C66.7596 14.3707 66.6229 14.4045 66.4702 14.4364C66.3175 14.4648 66.1648 14.4915 66.0121 14.5163C65.8594 14.5376 65.7209 14.5572 65.5966 14.5749C65.3303 14.614 65.0977 14.6761 64.8988 14.7614C64.6999 14.8466 64.5455 14.962 64.4354 15.1076C64.3253 15.2496 64.2703 15.4272 64.2703 15.6403C64.2703 15.9492 64.3821 16.1854 64.6058 16.3487C64.8331 16.5085 65.1208 16.5884 65.4688 16.5884ZM78.0719 9.81818L75.2114 18H72.6546L69.7942 9.81818H72.1912L73.8904 15.6722H73.9756L75.6695 9.81818H78.0719ZM78.7831 18V9.81818H81.0523V18H78.7831ZM79.923 8.76349C79.5856 8.76349 79.2962 8.65163 79.0547 8.42791C78.8168 8.20064 78.6979 7.92898 78.6979 7.61293C78.6979 7.30043 78.8168 7.03232 79.0547 6.80859C79.2962 6.58132 79.5856 6.46768 79.923 6.46768C80.2604 6.46768 80.548 6.58132 80.7859 6.80859C81.0274 7.03232 81.1481 7.30043 81.1481 7.61293C81.1481 7.92898 81.0274 8.20064 80.7859 8.42791C80.548 8.65163 80.2604 8.76349 79.923 8.76349ZM86.1061 21.2386C85.371 21.2386 84.7407 21.1374 84.2151 20.935C83.6931 20.7362 83.2776 20.4645 82.9686 20.12C82.6597 19.7756 82.4591 19.3885 82.3667 18.9588L84.4654 18.6765C84.5294 18.8398 84.6306 18.9925 84.7691 19.1346C84.9076 19.2766 85.0904 19.3903 85.3177 19.4755C85.5485 19.5643 85.8291 19.6087 86.1593 19.6087C86.6529 19.6087 87.0596 19.4879 87.3792 19.2464C87.7023 19.0085 87.8639 18.609 87.8639 18.0479V16.5511H87.768C87.6686 16.7784 87.5194 16.9933 87.3206 17.1957C87.1217 17.3981 86.866 17.5632 86.5535 17.6911C86.241 17.8189 85.8681 17.8828 85.4349 17.8828C84.8206 17.8828 84.2613 17.7408 83.757 17.4567C83.2563 17.169 82.8568 16.7305 82.5585 16.141C82.2637 15.5479 82.1164 14.7987 82.1164 13.8931C82.1164 12.9663 82.2673 12.1921 82.5691 11.5707C82.871 10.9492 83.2723 10.484 83.773 10.1751C84.2772 9.86612 84.8294 9.71165 85.4296 9.71165C85.8877 9.71165 86.2712 9.78977 86.5802 9.94602C86.8891 10.0987 87.1377 10.2905 87.3259 10.5213C87.5177 10.7486 87.665 10.9723 87.768 11.1925H87.8532V9.81818H90.1064V18.0799C90.1064 18.7759 89.936 19.3583 89.5951 19.8271C89.2542 20.2958 88.7819 20.6474 88.1782 20.8817C87.578 21.1197 86.8873 21.2386 86.1061 21.2386ZM86.154 16.1783C86.5198 16.1783 86.8287 16.0877 87.0809 15.9066C87.3365 15.7219 87.5319 15.4592 87.6668 15.1183C87.8053 14.7738 87.8745 14.3619 87.8745 13.8825C87.8745 13.4031 87.8071 12.9876 87.6721 12.636C87.5372 12.2809 87.3419 12.0057 87.0862 11.8104C86.8305 11.6151 86.5198 11.5174 86.154 11.5174C85.7811 11.5174 85.4669 11.6186 85.2112 11.821C84.9555 12.0199 84.762 12.2969 84.6306 12.652C84.4992 13.0071 84.4335 13.4173 84.4335 13.8825C84.4335 14.3548 84.4992 14.7631 84.6306 15.1076C84.7655 15.4485 84.9591 15.7131 85.2112 15.9013C85.4669 16.0859 85.7811 16.1783 86.154 16.1783ZM93.7953 18.1545C93.2733 18.1545 92.8081 18.0639 92.3997 17.8828C91.9913 17.6982 91.6681 17.4265 91.4302 17.0678C91.1958 16.7056 91.0787 16.2546 91.0787 15.7148C91.0787 15.2603 91.1621 14.8786 91.329 14.5696C91.4959 14.2607 91.7232 14.0121 92.0108 13.8239C92.2985 13.6357 92.6252 13.4936 92.9909 13.3977C93.3603 13.3018 93.7473 13.2344 94.1522 13.1953C94.628 13.1456 95.0115 13.0994 95.3027 13.0568C95.5939 13.0107 95.8052 12.9432 95.9366 12.8544C96.068 12.7656 96.1337 12.6342 96.1337 12.4602V12.4283C96.1337 12.0909 96.0272 11.8299 95.8141 11.6452C95.6046 11.4606 95.3063 11.3683 94.9192 11.3683C94.5108 11.3683 94.1859 11.4588 93.9444 11.6399C93.7029 11.8175 93.5431 12.0412 93.465 12.3111L91.3663 12.1406C91.4728 11.6435 91.6824 11.2138 91.9949 10.8516C92.3074 10.4858 92.7104 10.2053 93.204 10.0099C93.7012 9.81108 94.2765 9.71165 94.9299 9.71165C95.3844 9.71165 95.8194 9.76491 96.2349 9.87145C96.6539 9.97798 97.025 10.1431 97.3482 10.3668C97.6749 10.5906 97.9324 10.8782 98.1206 11.2298C98.3088 11.5778 98.4029 11.995 98.4029 12.4815V18H96.2509V16.8654H96.187C96.0556 17.1211 95.8798 17.3466 95.6596 17.5419C95.4395 17.7337 95.1749 17.8846 94.8659 17.9947C94.557 18.1012 94.2001 18.1545 93.7953 18.1545ZM94.4451 16.5884C94.7789 16.5884 95.0737 16.5227 95.3294 16.3913C95.585 16.2564 95.7857 16.0753 95.9313 15.848C96.0769 15.6207 96.1497 15.3633 96.1497 15.0756V14.2074C96.0787 14.2536 95.981 14.2962 95.8567 14.3352C95.736 14.3707 95.5993 14.4045 95.4466 14.4364C95.2939 14.4648 95.1412 14.4915 94.9885 14.5163C94.8358 14.5376 94.6973 14.5572 94.573 14.5749C94.3066 14.614 94.074 14.6761 93.8752 14.7614C93.6763 14.8466 93.5218 14.962 93.4118 15.1076C93.3017 15.2496 93.2466 15.4272 93.2466 15.6403C93.2466 15.9492 93.3585 16.1854 93.5822 16.3487C93.8095 16.5085 94.0971 16.5884 94.4451 16.5884ZM104.065 9.81818V11.5227H99.1381V9.81818H104.065ZM100.257 7.85795H102.526V15.4858C102.526 15.6953 102.558 15.8587 102.622 15.9759C102.686 16.0895 102.774 16.1694 102.888 16.2156C103.005 16.2617 103.14 16.2848 103.293 16.2848C103.399 16.2848 103.506 16.2759 103.612 16.2582C103.719 16.2369 103.801 16.2209 103.858 16.2102L104.214 17.8988C104.101 17.9343 103.941 17.9751 103.735 18.0213C103.529 18.071 103.279 18.1012 102.984 18.1119C102.437 18.1332 101.958 18.0604 101.546 17.8935C101.137 17.7266 100.82 17.4673 100.592 17.1158C100.365 16.7642 100.253 16.3203 100.257 15.7841V7.85795ZM105.093 18V9.81818H107.363V18H105.093ZM106.233 8.76349C105.896 8.76349 105.607 8.65163 105.365 8.42791C105.127 8.20064 105.008 7.92898 105.008 7.61293C105.008 7.30043 105.127 7.03232 105.365 6.80859C105.607 6.58132 105.896 6.46768 106.233 6.46768C106.571 6.46768 106.858 6.58132 107.096 6.80859C107.338 7.03232 107.458 7.30043 107.458 7.61293C107.458 7.92898 107.338 8.20064 107.096 8.42791C106.858 8.65163 106.571 8.76349 106.233 8.76349ZM112.427 18.1598C111.6 18.1598 110.884 17.984 110.28 17.6325C109.68 17.2773 109.217 16.7837 108.89 16.1516C108.563 15.516 108.4 14.7791 108.4 13.9411C108.4 13.0959 108.563 12.3572 108.89 11.7251C109.217 11.0895 109.68 10.5959 110.28 10.2443C110.884 9.8892 111.6 9.71165 112.427 9.71165C113.254 9.71165 113.968 9.8892 114.568 10.2443C115.172 10.5959 115.637 11.0895 115.964 11.7251C116.291 12.3572 116.454 13.0959 116.454 13.9411C116.454 14.7791 116.291 15.516 115.964 16.1516C115.637 16.7837 115.172 17.2773 114.568 17.6325C113.968 17.984 113.254 18.1598 112.427 18.1598ZM112.438 16.402C112.814 16.402 113.128 16.2955 113.381 16.0824C113.633 15.8658 113.823 15.571 113.951 15.1982C114.082 14.8253 114.148 14.4009 114.148 13.9251C114.148 13.4492 114.082 13.0249 113.951 12.652C113.823 12.2791 113.633 11.9844 113.381 11.7678C113.128 11.5511 112.814 11.4428 112.438 11.4428C112.058 11.4428 111.738 11.5511 111.479 11.7678C111.223 11.9844 111.03 12.2791 110.898 12.652C110.77 13.0249 110.707 13.4492 110.707 13.9251C110.707 14.4009 110.77 14.8253 110.898 15.1982C111.03 15.571 111.223 15.8658 111.479 16.0824C111.738 16.2955 112.058 16.402 112.438 16.402ZM119.749 13.2699V18H117.48V9.81818H119.642V11.2617H119.738C119.919 10.7859 120.223 10.4094 120.649 10.1325C121.075 9.85192 121.592 9.71165 122.199 9.71165C122.767 9.71165 123.263 9.83594 123.685 10.0845C124.108 10.3331 124.436 10.6882 124.671 11.1499C124.905 11.608 125.022 12.1548 125.022 12.7905V18H122.753V13.1953C122.757 12.6946 122.629 12.304 122.369 12.0234C122.11 11.7393 121.753 11.5973 121.299 11.5973C120.993 11.5973 120.724 11.663 120.489 11.7944C120.258 11.9258 120.077 12.1175 119.946 12.3697C119.818 12.6183 119.752 12.9183 119.749 13.2699ZM127.612 7.09091L130.249 15.3793H130.35L132.992 7.09091H135.549L131.789 18H128.816L125.05 7.09091H127.612ZM136.37 18V9.81818H138.639V18H136.37ZM137.51 8.76349C137.172 8.76349 136.883 8.65163 136.641 8.42791C136.403 8.20064 136.284 7.92898 136.284 7.61293C136.284 7.30043 136.403 7.03232 136.641 6.80859C136.883 6.58132 137.172 6.46768 137.51 6.46768C137.847 6.46768 138.135 6.58132 138.372 6.80859C138.614 7.03232 138.735 7.30043 138.735 7.61293C138.735 7.92898 138.614 8.20064 138.372 8.42791C138.135 8.65163 137.847 8.76349 137.51 8.76349ZM143.735 18.1598C142.894 18.1598 142.169 17.9893 141.562 17.6484C140.958 17.304 140.493 16.8175 140.166 16.1889C139.84 15.5568 139.676 14.8093 139.676 13.9464C139.676 13.1048 139.84 12.3661 140.166 11.7305C140.493 11.0948 140.953 10.5994 141.546 10.2443C142.143 9.8892 142.842 9.71165 143.645 9.71165C144.184 9.71165 144.687 9.79865 145.152 9.97266C145.621 10.1431 146.029 10.4006 146.377 10.745C146.729 11.0895 147.002 11.5227 147.198 12.0447C147.393 12.5632 147.491 13.1705 147.491 13.8665V14.4897H140.582V13.0835H145.355C145.355 12.7567 145.284 12.4673 145.141 12.2152C144.999 11.9631 144.802 11.766 144.55 11.6239C144.302 11.4783 144.012 11.4055 143.682 11.4055C143.337 11.4055 143.032 11.4854 142.766 11.6452C142.503 11.8015 142.297 12.0128 142.148 12.2791C141.999 12.5419 141.922 12.8349 141.919 13.158V14.495C141.919 14.8999 141.993 15.2496 142.143 15.5444C142.295 15.8391 142.51 16.0664 142.787 16.2262C143.064 16.386 143.393 16.4659 143.772 16.4659C144.025 16.4659 144.255 16.4304 144.465 16.3594C144.674 16.2884 144.854 16.1818 145.003 16.0398C145.152 15.8977 145.266 15.7237 145.344 15.5178L147.443 15.6562C147.336 16.1605 147.118 16.6009 146.787 16.9773C146.461 17.3501 146.038 17.6413 145.52 17.8509C145.005 18.0568 144.41 18.1598 143.735 18.1598ZM150.077 18L147.85 9.81818H150.146L151.414 15.3153H151.488L152.809 9.81818H155.063L156.405 15.2834H156.474L157.721 9.81818H160.011L157.79 18H155.387L153.981 12.8544H153.88L152.474 18H150.077Z" fill="#0D1117"/>
<path d="M51.9588 34V25.2727H53.233V28.5156H53.3097C53.3835 28.3793 53.4901 28.2216 53.6293 28.0426C53.7685 27.8636 53.9616 27.7074 54.2088 27.5739C54.456 27.4375 54.7827 27.3693 55.1889 27.3693C55.7173 27.3693 56.1889 27.5028 56.6037 27.7699C57.0185 28.0369 57.3438 28.4219 57.5795 28.9247C57.8182 29.4276 57.9375 30.0327 57.9375 30.7401C57.9375 31.4474 57.8196 32.054 57.5838 32.5597C57.348 33.0625 57.0241 33.4503 56.6122 33.723C56.2003 33.9929 55.7301 34.1278 55.2017 34.1278C54.804 34.1278 54.4787 34.0611 54.2259 33.9276C53.9759 33.794 53.7798 33.6378 53.6378 33.4588C53.4957 33.2798 53.3864 33.1207 53.3097 32.9815H53.2031V34H51.9588ZM53.2074 30.7273C53.2074 31.1875 53.2741 31.5909 53.4077 31.9375C53.5412 32.2841 53.7344 32.5554 53.9872 32.7514C54.2401 32.9446 54.5497 33.0412 54.9162 33.0412C55.2969 33.0412 55.6151 32.9403 55.8707 32.7386C56.1264 32.5341 56.3196 32.2571 56.4503 31.9077C56.5838 31.5582 56.6506 31.1648 56.6506 30.7273C56.6506 30.2955 56.5852 29.9077 56.4545 29.5639C56.3267 29.2202 56.1335 28.9489 55.875 28.75C55.6193 28.5511 55.2997 28.4517 54.9162 28.4517C54.5469 28.4517 54.2344 28.5469 53.9787 28.7372C53.7259 28.9276 53.5341 29.1932 53.4034 29.5341C53.2727 29.875 53.2074 30.2727 53.2074 30.7273ZM59.591 36.4545C59.4007 36.4545 59.2274 36.4389 59.0711 36.4077C58.9149 36.3793 58.7984 36.348 58.7217 36.3139L59.0285 35.2699C59.2614 35.3324 59.4688 35.3594 59.6507 35.3509C59.8325 35.3423 59.993 35.2741 60.1322 35.1463C60.2742 35.0185 60.3992 34.8097 60.5072 34.5199L60.6649 34.0852L58.27 27.4545H59.6336L61.2913 32.5341H61.3595L63.0171 27.4545H64.385L61.6876 34.8736C61.5626 35.2145 61.4035 35.5028 61.2103 35.7386C61.0171 35.9773 60.787 36.1563 60.52 36.2756C60.2529 36.3949 59.9433 36.4545 59.591 36.4545ZM68.1405 25.2727H69.7385L72.5169 32.0568H72.6192L75.3976 25.2727H76.9956V34H75.7428V27.6847H75.6618L73.088 33.9872H72.0482L69.4743 27.6804H69.3934V34H68.1405V25.2727ZM78.4478 34V27.4545H79.7219V34H78.4478ZM79.0912 26.4446C78.8697 26.4446 78.6793 26.3707 78.5202 26.223C78.364 26.0724 78.2859 25.8935 78.2859 25.6861C78.2859 25.4759 78.364 25.2969 78.5202 25.1491C78.6793 24.9986 78.8697 24.9233 79.0912 24.9233C79.3128 24.9233 79.5018 24.9986 79.658 25.1491C79.8171 25.2969 79.8966 25.4759 79.8966 25.6861C79.8966 25.8935 79.8171 26.0724 79.658 26.223C79.5018 26.3707 79.3128 26.4446 79.0912 26.4446ZM81.0761 27.4545H82.3502V34.4261C82.3502 34.8636 82.2707 35.233 82.1116 35.5341C81.9553 35.8352 81.7224 36.0639 81.4127 36.2202C81.1059 36.3764 80.7266 36.4545 80.2749 36.4545C80.2295 36.4545 80.1869 36.4545 80.1471 36.4545C80.1045 36.4545 80.0604 36.4531 80.015 36.4503V35.3551C80.0548 35.3551 80.0903 35.3551 80.1215 35.3551C80.1499 35.3551 80.1826 35.3551 80.2195 35.3551C80.5207 35.3551 80.738 35.2741 80.8715 35.1122C81.0079 34.9531 81.0761 34.7216 81.0761 34.4176V27.4545ZM81.7067 26.4446C81.4852 26.4446 81.2948 26.3707 81.1357 26.223C80.9795 26.0724 80.9014 25.8935 80.9014 25.6861C80.9014 25.4759 80.9795 25.2969 81.1357 25.1491C81.2948 24.9986 81.4852 24.9233 81.7067 24.9233C81.9283 24.9233 82.1173 24.9986 82.2735 25.1491C82.4326 25.2969 82.5121 25.4759 82.5121 25.6861C82.5121 25.8935 82.4326 26.0724 82.2735 26.223C82.1173 26.3707 81.9283 26.4446 81.7067 26.4446ZM83.7043 34V27.4545H84.9785V34H83.7043ZM84.3478 26.4446C84.1262 26.4446 83.9359 26.3707 83.7768 26.223C83.6205 26.0724 83.5424 25.8935 83.5424 25.6861C83.5424 25.4759 83.6205 25.2969 83.7768 25.1491C83.9359 24.9986 84.1262 24.9233 84.3478 24.9233C84.5694 24.9233 84.7583 24.9986 84.9146 25.1491C85.0737 25.2969 85.1532 25.4759 85.1532 25.6861C85.1532 25.8935 85.0737 26.0724 84.9146 26.223C84.7583 26.3707 84.5694 26.4446 84.3478 26.4446ZM89.0897 34.1321C88.4562 34.1321 87.9108 33.9886 87.4534 33.7017C86.9988 33.4119 86.6494 33.0128 86.4051 32.5043C86.1608 31.9957 86.0386 31.4134 86.0386 30.7571C86.0386 30.0923 86.1636 29.5057 86.4136 28.9972C86.6636 28.4858 87.0159 28.0866 87.4704 27.7997C87.925 27.5128 88.4605 27.3693 89.0769 27.3693C89.5741 27.3693 90.0173 27.4616 90.4065 27.6463C90.7957 27.8281 91.1096 28.0838 91.3483 28.4134C91.5897 28.7429 91.7332 29.1278 91.7787 29.5682H90.5386C90.4704 29.2614 90.3142 28.9972 90.0698 28.7756C89.8284 28.554 89.5045 28.4432 89.0983 28.4432C88.7431 28.4432 88.4321 28.5369 88.165 28.7244C87.9008 28.9091 87.6948 29.1733 87.5471 29.517C87.3994 29.858 87.3255 30.2614 87.3255 30.7273C87.3255 31.2045 87.398 31.6165 87.5429 31.9631C87.6877 32.3097 87.8923 32.5781 88.1565 32.7685C88.4235 32.9588 88.7375 33.054 89.0983 33.054C89.3397 33.054 89.5585 33.0099 89.7545 32.9219C89.9534 32.831 90.1196 32.7017 90.2531 32.5341C90.3894 32.3665 90.4846 32.1648 90.5386 31.929H91.7787C91.7332 32.3523 91.5954 32.7301 91.3653 33.0625C91.1352 33.3949 90.8269 33.6562 90.4406 33.8466C90.0571 34.0369 89.6068 34.1321 89.0897 34.1321ZM93.9531 31.7798L93.9446 30.2244H94.1662L96.7741 27.4545H98.2997L95.3253 30.608H95.125L93.9531 31.7798ZM92.7812 34V25.2727H94.0554V34H92.7812ZM96.9147 34L94.571 30.8892L95.4488 29.9986L98.4787 34H96.9147Z" fill="#0D1117"/>
</svg>
