<svg width="163" height="41" viewBox="0 0 163 41" fill="none" xmlns="http://www.w3.org/2000/svg">
<rect width="41" height="41" rx="9" fill="#F0C808"/>
<path d="M23.8312 16.0582C23.8312 14.0704 23.8312 13.0765 24.2836 12.349C24.5266 11.9583 24.8562 11.6286 25.247 11.3856C25.9745 10.9332 26.9684 10.9332 28.9562 10.9332C30.944 10.9332 31.9379 10.9332 32.6654 11.3856C33.0562 11.6286 33.3858 11.9583 33.6288 12.349C34.0812 13.0765 34.0812 14.0704 34.0812 16.0582V27.6749C34.0812 29.6627 34.0812 30.6566 33.6288 31.3841C33.3858 31.7749 33.0562 32.1045 32.6654 32.3475C31.9379 32.7999 30.944 32.7999 28.9562 32.7999C26.9684 32.7999 25.9745 32.7999 25.247 32.3475C24.8562 32.1045 24.5266 31.7749 24.2836 31.3841C23.8312 30.6566 23.8312 29.6627 23.8312 27.6749V16.0582Z" fill="#25282D"/>
<rect x="6.9187" y="15.0333" width="8.2" height="17.7667" rx="3" fill="#2C2F34"/>
<path d="M9.99365 16.0582C9.99365 14.0704 9.99365 13.0765 10.446 12.349C10.689 11.9583 11.0187 11.6286 11.4094 11.3856C12.137 10.9332 13.1309 10.9332 15.1187 10.9332C17.1065 10.9332 18.1003 10.9332 18.8279 11.3856C19.2186 11.6286 19.5483 11.9583 19.7913 12.349C20.2437 13.0765 20.2437 14.0704 20.2437 16.0582V27.6749C20.2437 29.6627 20.2437 30.6566 19.7913 31.3841C19.5483 31.7749 19.2186 32.1045 18.8279 32.3475C18.1003 32.7999 17.1065 32.7999 15.1187 32.7999C13.1309 32.7999 12.137 32.7999 11.4094 32.3475C11.0187 32.1045 10.689 31.7749 10.446 31.3841C9.99365 30.6566 9.99365 29.6627 9.99365 27.6749V16.0582Z" fill="#25282D"/>
<path d="M16.3146 14.2C16.3146 11.3715 16.3146 9.95731 17.1933 9.07863C18.0719 8.19995 19.4861 8.19995 22.3146 8.19995H23.9812C26.8097 8.19995 28.2239 8.19995 29.1026 9.07863C29.9812 9.95731 29.9812 11.3715 29.9812 14.2V26.7999C29.9812 29.6284 29.9812 31.0426 29.1026 31.9213C28.2239 32.7999 26.8097 32.7999 23.9812 32.7999H22.3146C19.4861 32.7999 18.0719 32.7999 17.1933 31.9213C16.3146 31.0426 16.3146 29.6284 16.3146 26.7999V14.2Z" fill="#0D1117"/>
<path d="M23.2333 24.3267C22.0933 24.1362 20.5 23.37 20.5 23.37C20.5 23.37 21.7583 25.2833 23.2333 25.2833C24.7083 25.2833 25.9667 24.3267 25.9667 24.3267C25.9667 24.3267 24.2641 24.4989 23.2333 24.3267Z" fill="#F0C808"/>
<ellipse cx="26.5361" cy="19.1845" rx="1.025" ry="1.07625" fill="#F0C808"/>
<ellipse cx="19.9305" cy="19.1845" rx="1.025" ry="1.07625" fill="#F0C808"/>
<path d="M50.065 17V6.695H52.27L57.25 13.355V6.695H59.455V17H57.25L52.27 10.34V17H50.065ZM64.7437 9.065C66.7687 9.065 68.1637 10.34 68.1637 12.365V17H66.0487V16.22C65.4937 16.835 64.6087 17.18 63.7537 17.18C62.1037 17.18 60.8437 16.19 60.8437 14.705C60.8437 13.175 62.2687 12.125 64.0537 12.125C64.6837 12.125 65.3887 12.26 66.0487 12.53V12.365C66.0487 11.54 65.5237 10.82 64.2487 10.82C63.5287 10.82 62.8537 11.06 62.2387 11.375L61.5037 9.92C62.5987 9.365 63.6637 9.065 64.7437 9.065ZM64.2487 15.665C65.0887 15.665 65.8837 15.275 66.0487 14.555V13.85C65.5537 13.655 64.9687 13.55 64.3687 13.55C63.5737 13.55 62.9287 14.015 62.9287 14.645C62.9287 15.275 63.4987 15.665 64.2487 15.665ZM72.1403 17L68.7803 9.245H71.0753L73.1603 14.48L75.2003 9.245H77.4803L74.1653 17H72.1403ZM79.6463 8.18C78.9713 8.18 78.4463 7.64 78.4463 6.98C78.4463 6.365 78.9713 5.81 79.6463 5.81C80.2913 5.81 80.8313 6.365 80.8313 6.98C80.8313 7.64 80.2913 8.18 79.6463 8.18ZM78.5363 17V9.245H80.7263V17H78.5363ZM88.0131 9.245H90.2031V16.175C90.2031 18.17 88.4781 19.58 86.0331 19.58C84.6681 19.58 83.3931 19.145 82.6131 18.545L83.3781 17C83.8881 17.45 84.8031 17.735 85.7031 17.735C87.1131 17.735 88.0131 17.09 88.0131 16.085V15.215C87.3981 15.98 86.4831 16.43 85.4481 16.43C83.4831 16.43 81.9981 14.9 81.9981 12.74C81.9981 10.58 83.4831 9.065 85.4481 9.065C86.4831 9.065 87.4881 9.56 88.0131 10.295V9.245ZM86.1381 14.585C87.2331 14.585 88.0131 13.82 88.0131 12.74C88.0131 11.66 87.2331 10.91 86.1381 10.91C85.0431 10.91 84.2631 11.66 84.2631 12.74C84.2631 13.82 85.0431 14.585 86.1381 14.585ZM95.3003 9.065C97.3253 9.065 98.7203 10.34 98.7203 12.365V17H96.6053V16.22C96.0503 16.835 95.1653 17.18 94.3103 17.18C92.6603 17.18 91.4003 16.19 91.4003 14.705C91.4003 13.175 92.8253 12.125 94.6103 12.125C95.2403 12.125 95.9453 12.26 96.6053 12.53V12.365C96.6053 11.54 96.0803 10.82 94.8053 10.82C94.0853 10.82 93.4103 11.06 92.7953 11.375L92.0603 9.92C93.1553 9.365 94.2203 9.065 95.3003 9.065ZM94.8053 15.665C95.6453 15.665 96.4403 15.275 96.6053 14.555V13.85C96.1103 13.655 95.5253 13.55 94.9253 13.55C94.1303 13.55 93.4853 14.015 93.4853 14.645C93.4853 15.275 94.0553 15.665 94.8053 15.665ZM104.342 15.08L104.867 16.505C104.417 16.91 103.712 17.18 103.097 17.18C101.717 17.18 100.757 16.205 100.757 14.81V11.015H99.692V9.245H100.757V7.115H102.872V9.245H104.552V11.015H102.872V14.465C102.872 14.975 103.187 15.335 103.607 15.335C103.907 15.335 104.192 15.23 104.342 15.08ZM107.2 8.18C106.525 8.18 106 7.64 106 6.98C106 6.365 106.525 5.81 107.2 5.81C107.845 5.81 108.385 6.365 108.385 6.98C108.385 7.64 107.845 8.18 107.2 8.18ZM106.09 17V9.245H108.28V17H106.09ZM113.737 17.18C111.412 17.18 109.507 15.35 109.507 13.115C109.507 10.88 111.412 9.065 113.737 9.065C116.062 9.065 117.967 10.88 117.967 13.115C117.967 15.35 116.062 17.18 113.737 17.18ZM113.737 15.335C114.907 15.335 115.867 14.33 115.867 13.115C115.867 11.9 114.907 10.91 113.737 10.91C112.567 10.91 111.607 11.9 111.607 13.115C111.607 14.33 112.567 15.335 113.737 15.335ZM123.716 9.065C125.396 9.065 126.581 10.295 126.581 12.065V17H124.481V12.53C124.481 11.57 123.881 10.91 123.011 10.91C122.096 10.91 121.376 11.57 121.376 12.41V17H119.186V9.245H121.376V10.205C121.841 9.515 122.711 9.065 123.716 9.065ZM135.207 6.695H137.697L133.497 17H131.022L126.822 6.695H129.312L132.267 13.955L135.207 6.695ZM139.705 8.18C139.03 8.18 138.505 7.64 138.505 6.98C138.505 6.365 139.03 5.81 139.705 5.81C140.35 5.81 140.89 6.365 140.89 6.98C140.89 7.64 140.35 8.18 139.705 8.18ZM138.595 17V9.245H140.785V17H138.595ZM146.107 15.485C146.812 15.485 147.622 15.17 148.117 14.72L149.347 15.98C148.657 16.7 147.322 17.18 146.182 17.18C143.872 17.18 142.027 15.485 142.027 13.1C142.027 10.76 143.797 9.065 146.062 9.065C148.492 9.065 149.962 10.82 149.962 13.7H144.112C144.307 14.75 145.042 15.485 146.107 15.485ZM146.077 10.76C145.102 10.76 144.367 11.405 144.127 12.395H147.862C147.682 11.435 147.067 10.76 146.077 10.76ZM152.676 17L150.036 9.245H152.181L153.651 14.075L155.181 9.245H156.996L158.541 14.075L159.996 9.245H162.141L159.516 17H157.551L156.096 12.125L154.641 17H152.676Z" fill="#0D1117"/>
<path d="M53.788 25.594C55.706 25.594 57.12 27.162 57.12 29.374C57.12 31.6 55.706 33.168 53.788 33.168C52.682 33.168 51.786 32.636 51.226 31.768V33H49.84V23.214H51.226V26.994C51.786 26.126 52.682 25.594 53.788 25.594ZM53.466 31.964C54.782 31.964 55.72 30.886 55.72 29.374C55.72 27.862 54.782 26.798 53.466 26.798C52.15 26.798 51.226 27.862 51.226 29.374C51.226 30.886 52.15 31.964 53.466 31.964ZM59.2797 35.52C58.7897 35.52 58.2997 35.408 57.9077 35.212L58.2157 34.148C58.4957 34.302 58.8177 34.372 59.1117 34.372C59.5457 34.372 59.8537 34.218 60.1057 33.784L60.4557 33.042L57.3477 25.762H58.8317L61.1557 31.474L63.3537 25.762H64.7957L61.6177 33.658C61.0857 34.96 60.3157 35.506 59.2797 35.52ZM70.0386 33V23.382H71.4526L74.8266 29.668L78.1866 23.382H79.6146V33H78.1866V26.154L74.8266 32.44L71.4526 26.154V33H70.0386ZM82.1481 24.558C81.6861 24.558 81.3081 24.166 81.3081 23.718C81.3081 23.284 81.6861 22.892 82.1481 22.892C82.6101 22.892 82.9741 23.284 82.9741 23.718C82.9741 24.166 82.6101 24.558 82.1481 24.558ZM81.4621 33V25.762H82.8341V33H81.4621ZM85.1569 24.558C84.6809 24.558 84.3169 24.166 84.3169 23.718C84.3169 23.284 84.6809 22.892 85.1569 22.892C85.6049 22.892 85.9829 23.284 85.9829 23.718C85.9829 24.166 85.6049 24.558 85.1569 24.558ZM83.9249 35.492C83.4909 35.492 82.9869 35.38 82.6789 35.24L82.8609 34.162C83.0849 34.246 83.4349 34.302 83.7149 34.302C84.1629 34.302 84.4709 33.938 84.4709 33.434V25.762H85.8429V33.504C85.8429 34.666 85.0449 35.492 83.9249 35.492ZM88.1637 24.558C87.7017 24.558 87.3237 24.166 87.3237 23.718C87.3237 23.284 87.7017 22.892 88.1637 22.892C88.6257 22.892 88.9897 23.284 88.9897 23.718C88.9897 24.166 88.6257 24.558 88.1637 24.558ZM87.4777 33V25.762H88.8497V33H87.4777ZM93.9025 33.168C91.8445 33.168 90.0945 31.432 90.0945 29.374C90.0945 27.316 91.8445 25.594 93.9165 25.594C94.9525 25.594 95.8905 26.028 96.5765 26.714L95.6385 27.582C95.2045 27.092 94.5745 26.798 93.9025 26.798C92.5865 26.798 91.4945 27.974 91.4945 29.374C91.4945 30.788 92.5865 31.964 93.9025 31.964C94.5885 31.964 95.2325 31.656 95.6805 31.152L96.6185 32.006C95.9185 32.72 94.9805 33.168 93.9025 33.168ZM97.8146 33V23.214H99.2006V29.472L102.743 25.762H104.423L101.301 29.038L104.283 33H102.631L100.349 29.962L99.2006 31.138V33H97.8146Z" fill="#25282D"/>
</svg>
