<svg width="167" height="41" viewBox="0 0 167 41" fill="none" xmlns="http://www.w3.org/2000/svg">
<rect width="41" height="41" rx="9" fill="#F0C808"/>
<path d="M23.8312 16.0582C23.8312 14.0704 23.8312 13.0765 24.2836 12.349C24.5266 11.9583 24.8562 11.6286 25.247 11.3856C25.9745 10.9332 26.9684 10.9332 28.9562 10.9332V10.9332C30.944 10.9332 31.9379 10.9332 32.6654 11.3856C33.0562 11.6286 33.3858 11.9583 33.6288 12.349C34.0812 13.0765 34.0812 14.0704 34.0812 16.0582V27.6749C34.0812 29.6627 34.0812 30.6566 33.6288 31.3841C33.3858 31.7749 33.0562 32.1045 32.6654 32.3475C31.9379 32.7999 30.944 32.7999 28.9562 32.7999V32.7999C26.9684 32.7999 25.9745 32.7999 25.247 32.3475C24.8562 32.1045 24.5266 31.7749 24.2836 31.3841C23.8312 30.6566 23.8312 29.6627 23.8312 27.6749V16.0582Z" fill="#25282D"/>
<rect x="6.9187" y="15.0333" width="8.2" height="17.7667" rx="3" fill="#2C2F34"/>
<path d="M9.99365 16.0582C9.99365 14.0704 9.99365 13.0765 10.446 12.349C10.689 11.9583 11.0187 11.6286 11.4094 11.3856C12.137 10.9332 13.1309 10.9332 15.1187 10.9332V10.9332C17.1065 10.9332 18.1003 10.9332 18.8279 11.3856C19.2186 11.6286 19.5483 11.9583 19.7913 12.349C20.2437 13.0765 20.2437 14.0704 20.2437 16.0582V27.6749C20.2437 29.6627 20.2437 30.6566 19.7913 31.3841C19.5483 31.7749 19.2186 32.1045 18.8279 32.3475C18.1003 32.7999 17.1065 32.7999 15.1187 32.7999V32.7999C13.1309 32.7999 12.137 32.7999 11.4094 32.3475C11.0187 32.1045 10.689 31.7749 10.446 31.3841C9.99365 30.6566 9.99365 29.6627 9.99365 27.6749V16.0582Z" fill="#25282D"/>
<path d="M16.3146 14.2C16.3146 11.3715 16.3146 9.95731 17.1933 9.07863C18.0719 8.19995 19.4861 8.19995 22.3146 8.19995H23.9812C26.8097 8.19995 28.2239 8.19995 29.1026 9.07863C29.9812 9.95731 29.9812 11.3715 29.9812 14.2V26.7999C29.9812 29.6284 29.9812 31.0426 29.1026 31.9213C28.2239 32.7999 26.8097 32.7999 23.9812 32.7999H22.3146C19.4861 32.7999 18.0719 32.7999 17.1933 31.9213C16.3146 31.0426 16.3146 29.6284 16.3146 26.7999V14.2Z" fill="#0D1117"/>
<path d="M23.2333 24.3267C22.0933 24.1362 20.5 23.37 20.5 23.37C20.5 23.37 21.7583 25.2833 23.2333 25.2833C24.7083 25.2833 25.9667 24.3267 25.9667 24.3267C25.9667 24.3267 24.2641 24.4989 23.2333 24.3267Z" fill="#F0C808"/>
<ellipse cx="26.5361" cy="19.1845" rx="1.025" ry="1.07625" fill="#F0C808"/>
<ellipse cx="19.9305" cy="19.1845" rx="1.025" ry="1.07625" fill="#F0C808"/>
<path d="M61.0728 7.09091V18H59.0806L54.3345 11.1339H54.2546V18H51.9482V7.09091H53.9723L58.6811 13.9517H58.777V7.09091H61.0728ZM65.2689 18.1545C64.7469 18.1545 64.2817 18.0639 63.8733 17.8828C63.4649 17.6982 63.1418 17.4265 62.9039 17.0678C62.6695 16.7056 62.5523 16.2546 62.5523 15.7148C62.5523 15.2603 62.6357 14.8786 62.8026 14.5696C62.9695 14.2607 63.1968 14.0121 63.4845 13.8239C63.7721 13.6357 64.0988 13.4936 64.4646 13.3977C64.8339 13.3018 65.221 13.2344 65.6258 13.1953C66.1017 13.1456 66.4852 13.0994 66.7764 13.0568C67.0676 13.0107 67.2789 12.9432 67.4102 12.8544C67.5416 12.7656 67.6073 12.6342 67.6073 12.4602V12.4283C67.6073 12.0909 67.5008 11.8299 67.2877 11.6452C67.0782 11.4606 66.7799 11.3683 66.3928 11.3683C65.9845 11.3683 65.6595 11.4588 65.4181 11.6399C65.1766 11.8175 65.0168 12.0412 64.9387 12.3111L62.8399 12.1406C62.9465 11.6435 63.156 11.2138 63.4685 10.8516C63.781 10.4858 64.184 10.2053 64.6776 10.0099C65.1748 9.81108 65.7501 9.71165 66.4035 9.71165C66.858 9.71165 67.2931 9.76491 67.7085 9.87145C68.1276 9.97798 68.4987 10.1431 68.8218 10.3668C69.1485 10.5906 69.406 10.8782 69.5942 11.2298C69.7824 11.5778 69.8765 11.995 69.8765 12.4815V18H67.7245V16.8654H67.6606C67.5292 17.1211 67.3534 17.3466 67.1333 17.5419C66.9131 17.7337 66.6485 17.8846 66.3396 17.9947C66.0306 18.1012 65.6737 18.1545 65.2689 18.1545ZM65.9188 16.5884C66.2526 16.5884 66.5473 16.5227 66.803 16.3913C67.0587 16.2564 67.2593 16.0753 67.4049 15.848C67.5505 15.6207 67.6233 15.3633 67.6233 15.0756V14.2074C67.5523 14.2536 67.4546 14.2962 67.3303 14.3352C67.2096 14.3707 67.0729 14.4045 66.9202 14.4364C66.7675 14.4648 66.6148 14.4915 66.4621 14.5163C66.3094 14.5376 66.1709 14.5572 66.0466 14.5749C65.7803 14.614 65.5477 14.6761 65.3488 14.7614C65.1499 14.8466 64.9955 14.962 64.8854 15.1076C64.7753 15.2496 64.7203 15.4272 64.7203 15.6403C64.7203 15.9492 64.8321 16.1854 65.0558 16.3487C65.2831 16.5085 65.5708 16.5884 65.9188 16.5884ZM78.9719 9.81818L76.1114 18H73.5546L70.6942 9.81818H73.0912L74.7904 15.6722H74.8756L76.5695 9.81818H78.9719ZM80.1331 18V9.81818H82.4023V18H80.1331ZM81.273 8.76349C80.9356 8.76349 80.6462 8.65163 80.4047 8.42791C80.1668 8.20064 80.0479 7.92898 80.0479 7.61293C80.0479 7.30043 80.1668 7.03232 80.4047 6.80859C80.6462 6.58132 80.9356 6.46768 81.273 6.46768C81.6104 6.46768 81.898 6.58132 82.1359 6.80859C82.3774 7.03232 82.4981 7.30043 82.4981 7.61293C82.4981 7.92898 82.3774 8.20064 82.1359 8.42791C81.898 8.65163 81.6104 8.76349 81.273 8.76349ZM87.9061 21.2386C87.171 21.2386 86.5407 21.1374 86.0151 20.935C85.4931 20.7362 85.0776 20.4645 84.7686 20.12C84.4597 19.7756 84.2591 19.3885 84.1667 18.9588L86.2654 18.6765C86.3294 18.8398 86.4306 18.9925 86.5691 19.1346C86.7076 19.2766 86.8904 19.3903 87.1177 19.4755C87.3485 19.5643 87.6291 19.6087 87.9593 19.6087C88.4529 19.6087 88.8596 19.4879 89.1792 19.2464C89.5023 19.0085 89.6639 18.609 89.6639 18.0479V16.5511H89.568C89.4686 16.7784 89.3194 16.9933 89.1206 17.1957C88.9217 17.3981 88.666 17.5632 88.3535 17.6911C88.041 17.8189 87.6681 17.8828 87.2349 17.8828C86.6206 17.8828 86.0613 17.7408 85.557 17.4567C85.0563 17.169 84.6568 16.7305 84.3585 16.141C84.0637 15.5479 83.9164 14.7987 83.9164 13.8931C83.9164 12.9663 84.0673 12.1921 84.3691 11.5707C84.671 10.9492 85.0723 10.484 85.573 10.1751C86.0772 9.86612 86.6294 9.71165 87.2296 9.71165C87.6877 9.71165 88.0712 9.78977 88.3801 9.94602C88.6891 10.0987 88.9377 10.2905 89.1259 10.5213C89.3176 10.7486 89.465 10.9723 89.568 11.1925H89.6532V9.81818H91.9064V18.0799C91.9064 18.7759 91.736 19.3583 91.3951 19.8271C91.0542 20.2958 90.5819 20.6474 89.9782 20.8817C89.378 21.1197 88.6873 21.2386 87.9061 21.2386ZM87.954 16.1783C88.3198 16.1783 88.6287 16.0877 88.8809 15.9066C89.1365 15.7219 89.3319 15.4592 89.4668 15.1183C89.6053 14.7738 89.6745 14.3619 89.6745 13.8825C89.6745 13.4031 89.6071 12.9876 89.4721 12.636C89.3372 12.2809 89.1419 12.0057 88.8862 11.8104C88.6305 11.6151 88.3198 11.5174 87.954 11.5174C87.5811 11.5174 87.2669 11.6186 87.0112 11.821C86.7555 12.0199 86.562 12.2969 86.4306 12.652C86.2992 13.0071 86.2335 13.4173 86.2335 13.8825C86.2335 14.3548 86.2992 14.7631 86.4306 15.1076C86.5655 15.4485 86.7591 15.7131 87.0112 15.9013C87.2669 16.0859 87.5811 16.1783 87.954 16.1783ZM96.0453 18.1545C95.5233 18.1545 95.0581 18.0639 94.6497 17.8828C94.2413 17.6982 93.9181 17.4265 93.6802 17.0678C93.4458 16.7056 93.3287 16.2546 93.3287 15.7148C93.3287 15.2603 93.4121 14.8786 93.579 14.5696C93.7459 14.2607 93.9732 14.0121 94.2608 13.8239C94.5485 13.6357 94.8752 13.4936 95.2409 13.3977C95.6103 13.3018 95.9973 13.2344 96.4022 13.1953C96.878 13.1456 97.2615 13.0994 97.5527 13.0568C97.8439 13.0107 98.0552 12.9432 98.1866 12.8544C98.318 12.7656 98.3837 12.6342 98.3837 12.4602V12.4283C98.3837 12.0909 98.2772 11.8299 98.0641 11.6452C97.8546 11.4606 97.5563 11.3683 97.1692 11.3683C96.7608 11.3683 96.4359 11.4588 96.1944 11.6399C95.9529 11.8175 95.7931 12.0412 95.715 12.3111L93.6163 12.1406C93.7228 11.6435 93.9324 11.2138 94.2449 10.8516C94.5574 10.4858 94.9604 10.2053 95.454 10.0099C95.9512 9.81108 96.5265 9.71165 97.1799 9.71165C97.6344 9.71165 98.0694 9.76491 98.4849 9.87145C98.9039 9.97798 99.275 10.1431 99.5982 10.3668C99.9249 10.5906 100.182 10.8782 100.371 11.2298C100.559 11.5778 100.653 11.995 100.653 12.4815V18H98.5009V16.8654H98.437C98.3056 17.1211 98.1298 17.3466 97.9096 17.5419C97.6895 17.7337 97.4249 17.8846 97.1159 17.9947C96.807 18.1012 96.4501 18.1545 96.0453 18.1545ZM96.6951 16.5884C97.0289 16.5884 97.3237 16.5227 97.5794 16.3913C97.835 16.2564 98.0357 16.0753 98.1813 15.848C98.3269 15.6207 98.3997 15.3633 98.3997 15.0756V14.2074C98.3287 14.2536 98.231 14.2962 98.1067 14.3352C97.986 14.3707 97.8493 14.4045 97.6966 14.4364C97.5439 14.4648 97.3912 14.4915 97.2385 14.5163C97.0858 14.5376 96.9473 14.5572 96.823 14.5749C96.5566 14.614 96.324 14.6761 96.1252 14.7614C95.9263 14.8466 95.7718 14.962 95.6618 15.1076C95.5517 15.2496 95.4966 15.4272 95.4966 15.6403C95.4966 15.9492 95.6085 16.1854 95.8322 16.3487C96.0595 16.5085 96.3471 16.5884 96.6951 16.5884ZM106.765 9.81818V11.5227H101.838V9.81818H106.765ZM102.957 7.85795H105.226V15.4858C105.226 15.6953 105.258 15.8587 105.322 15.9759C105.386 16.0895 105.474 16.1694 105.588 16.2156C105.705 16.2617 105.84 16.2848 105.993 16.2848C106.099 16.2848 106.206 16.2759 106.312 16.2582C106.419 16.2369 106.501 16.2209 106.558 16.2102L106.914 17.8988C106.801 17.9343 106.641 17.9751 106.435 18.0213C106.229 18.071 105.979 18.1012 105.684 18.1119C105.137 18.1332 104.658 18.0604 104.246 17.8935C103.837 17.7266 103.52 17.4673 103.292 17.1158C103.065 16.7642 102.953 16.3203 102.957 15.7841V7.85795ZM108.243 18V9.81818H110.513V18H108.243ZM109.383 8.76349C109.046 8.76349 108.757 8.65163 108.515 8.42791C108.277 8.20064 108.158 7.92898 108.158 7.61293C108.158 7.30043 108.277 7.03232 108.515 6.80859C108.757 6.58132 109.046 6.46768 109.383 6.46768C109.721 6.46768 110.008 6.58132 110.246 6.80859C110.488 7.03232 110.608 7.30043 110.608 7.61293C110.608 7.92898 110.488 8.20064 110.246 8.42791C110.008 8.65163 109.721 8.76349 109.383 8.76349ZM116.027 18.1598C115.2 18.1598 114.484 17.984 113.88 17.6325C113.28 17.2773 112.817 16.7837 112.49 16.1516C112.163 15.516 112 14.7791 112 13.9411C112 13.0959 112.163 12.3572 112.49 11.7251C112.817 11.0895 113.28 10.5959 113.88 10.2443C114.484 9.8892 115.2 9.71165 116.027 9.71165C116.854 9.71165 117.568 9.8892 118.168 10.2443C118.772 10.5959 119.237 11.0895 119.564 11.7251C119.891 12.3572 120.054 13.0959 120.054 13.9411C120.054 14.7791 119.891 15.516 119.564 16.1516C119.237 16.7837 118.772 17.2773 118.168 17.6325C117.568 17.984 116.854 18.1598 116.027 18.1598ZM116.038 16.402C116.414 16.402 116.728 16.2955 116.981 16.0824C117.233 15.8658 117.423 15.571 117.551 15.1982C117.682 14.8253 117.748 14.4009 117.748 13.9251C117.748 13.4492 117.682 13.0249 117.551 12.652C117.423 12.2791 117.233 11.9844 116.981 11.7678C116.728 11.5511 116.414 11.4428 116.038 11.4428C115.658 11.4428 115.338 11.5511 115.079 11.7678C114.823 11.9844 114.63 12.2791 114.498 12.652C114.37 13.0249 114.307 13.4492 114.307 13.9251C114.307 14.4009 114.37 14.8253 114.498 15.1982C114.63 15.571 114.823 15.8658 115.079 16.0824C115.338 16.2955 115.658 16.402 116.038 16.402ZM123.799 13.2699V18H121.53V9.81818H123.692V11.2617H123.788C123.969 10.7859 124.273 10.4094 124.699 10.1325C125.125 9.85192 125.642 9.71165 126.249 9.71165C126.817 9.71165 127.313 9.83594 127.735 10.0845C128.158 10.3331 128.486 10.6882 128.721 11.1499C128.955 11.608 129.072 12.1548 129.072 12.7905V18H126.803V13.1953C126.807 12.6946 126.679 12.304 126.419 12.0234C126.16 11.7393 125.803 11.5973 125.349 11.5973C125.043 11.5973 124.774 11.663 124.539 11.7944C124.308 11.9258 124.127 12.1175 123.996 12.3697C123.868 12.6183 123.802 12.9183 123.799 13.2699ZM132.112 7.09091L134.749 15.3793H134.85L137.492 7.09091H140.049L136.289 18H133.316L129.55 7.09091H132.112ZM141.32 18V9.81818H143.589V18H141.32ZM142.46 8.76349C142.122 8.76349 141.833 8.65163 141.591 8.42791C141.353 8.20064 141.234 7.92898 141.234 7.61293C141.234 7.30043 141.353 7.03232 141.591 6.80859C141.833 6.58132 142.122 6.46768 142.46 6.46768C142.797 6.46768 143.085 6.58132 143.322 6.80859C143.564 7.03232 143.685 7.30043 143.685 7.61293C143.685 7.92898 143.564 8.20064 143.322 8.42791C143.085 8.65163 142.797 8.76349 142.46 8.76349ZM149.135 18.1598C148.294 18.1598 147.569 17.9893 146.962 17.6484C146.358 17.304 145.893 16.8175 145.566 16.1889C145.24 15.5568 145.076 14.8093 145.076 13.9464C145.076 13.1048 145.24 12.3661 145.566 11.7305C145.893 11.0948 146.353 10.5994 146.946 10.2443C147.543 9.8892 148.242 9.71165 149.045 9.71165C149.584 9.71165 150.087 9.79865 150.552 9.97266C151.021 10.1431 151.429 10.4006 151.777 10.745C152.129 11.0895 152.402 11.5227 152.598 12.0447C152.793 12.5632 152.891 13.1705 152.891 13.8665V14.4897H145.982V13.0835H150.755C150.755 12.7567 150.684 12.4673 150.541 12.2152C150.399 11.9631 150.202 11.766 149.95 11.6239C149.702 11.4783 149.412 11.4055 149.082 11.4055C148.737 11.4055 148.432 11.4854 148.166 11.6452C147.903 11.8015 147.697 12.0128 147.548 12.2791C147.399 12.5419 147.322 12.8349 147.319 13.158V14.495C147.319 14.8999 147.393 15.2496 147.543 15.5444C147.695 15.8391 147.91 16.0664 148.187 16.2262C148.464 16.386 148.793 16.4659 149.172 16.4659C149.425 16.4659 149.655 16.4304 149.865 16.3594C150.074 16.2884 150.254 16.1818 150.403 16.0398C150.552 15.8977 150.666 15.7237 150.744 15.5178L152.843 15.6562C152.736 16.1605 152.518 16.6009 152.187 16.9773C151.861 17.3501 151.438 17.6413 150.92 17.8509C150.405 18.0568 149.81 18.1598 149.135 18.1598ZM155.927 18L153.7 9.81818H155.996L157.264 15.3153H157.338L158.659 9.81818H160.913L162.255 15.2834H162.324L163.571 9.81818H165.861L163.64 18H161.237L159.831 12.8544H159.73L158.324 18H155.927Z" fill="#0D1117"/>
<path d="M51.9588 34V25.2727H53.233V28.5156H53.3097C53.3835 28.3793 53.4901 28.2216 53.6293 28.0426C53.7685 27.8636 53.9616 27.7074 54.2088 27.5739C54.456 27.4375 54.7827 27.3693 55.1889 27.3693C55.7173 27.3693 56.1889 27.5028 56.6037 27.7699C57.0185 28.0369 57.3438 28.4219 57.5795 28.9247C57.8182 29.4276 57.9375 30.0327 57.9375 30.7401C57.9375 31.4474 57.8196 32.054 57.5838 32.5597C57.348 33.0625 57.0241 33.4503 56.6122 33.723C56.2003 33.9929 55.7301 34.1278 55.2017 34.1278C54.804 34.1278 54.4787 34.0611 54.2259 33.9276C53.9759 33.794 53.7798 33.6378 53.6378 33.4588C53.4957 33.2798 53.3864 33.1207 53.3097 32.9815H53.2031V34H51.9588ZM53.2074 30.7273C53.2074 31.1875 53.2741 31.5909 53.4077 31.9375C53.5412 32.2841 53.7344 32.5554 53.9872 32.7514C54.2401 32.9446 54.5497 33.0412 54.9162 33.0412C55.2969 33.0412 55.6151 32.9403 55.8707 32.7386C56.1264 32.5341 56.3196 32.2571 56.4503 31.9077C56.5838 31.5582 56.6506 31.1648 56.6506 30.7273C56.6506 30.2955 56.5852 29.9077 56.4545 29.5639C56.3267 29.2202 56.1335 28.9489 55.875 28.75C55.6193 28.5511 55.2997 28.4517 54.9162 28.4517C54.5469 28.4517 54.2344 28.5469 53.9787 28.7372C53.7259 28.9276 53.5341 29.1932 53.4034 29.5341C53.2727 29.875 53.2074 30.2727 53.2074 30.7273ZM59.951 36.4545C59.7607 36.4545 59.5874 36.4389 59.4311 36.4077C59.2749 36.3793 59.1584 36.348 59.0817 36.3139L59.3885 35.2699C59.6214 35.3324 59.8288 35.3594 60.0107 35.3509C60.1925 35.3423 60.353 35.2741 60.4922 35.1463C60.6342 35.0185 60.7592 34.8097 60.8672 34.5199L61.0249 34.0852L58.63 27.4545H59.9936L61.6513 32.5341H61.7195L63.3771 27.4545H64.745L62.0476 34.8736C61.9226 35.2145 61.7635 35.5028 61.5703 35.7386C61.3771 35.9773 61.147 36.1563 60.88 36.2756C60.6129 36.3949 60.3033 36.4545 59.951 36.4545ZM69.2205 25.2727H70.8185L73.5969 32.0568H73.6992L76.4776 25.2727H78.0756V34H76.8228V27.6847H76.7418L74.168 33.9872H73.1282L70.5543 27.6804H70.4734V34H69.2205V25.2727ZM79.8878 34V27.4545H81.1619V34H79.8878ZM80.5312 26.4446C80.3097 26.4446 80.1193 26.3707 79.9602 26.223C79.804 26.0724 79.7259 25.8935 79.7259 25.6861C79.7259 25.4759 79.804 25.2969 79.9602 25.1491C80.1193 24.9986 80.3097 24.9233 80.5312 24.9233C80.7528 24.9233 80.9418 24.9986 81.098 25.1491C81.2571 25.2969 81.3366 25.4759 81.3366 25.6861C81.3366 25.8935 81.2571 26.0724 81.098 26.223C80.9418 26.3707 80.7528 26.4446 80.5312 26.4446ZM82.8761 27.4545H84.1502V34.4261C84.1502 34.8636 84.0707 35.233 83.9116 35.5341C83.7553 35.8352 83.5224 36.0639 83.2127 36.2202C82.9059 36.3764 82.5266 36.4545 82.0749 36.4545C82.0295 36.4545 81.9869 36.4545 81.9471 36.4545C81.9045 36.4545 81.8604 36.4531 81.815 36.4503V35.3551C81.8548 35.3551 81.8903 35.3551 81.9215 35.3551C81.9499 35.3551 81.9826 35.3551 82.0195 35.3551C82.3207 35.3551 82.538 35.2741 82.6715 35.1122C82.8079 34.9531 82.8761 34.7216 82.8761 34.4176V27.4545ZM83.5067 26.4446C83.2852 26.4446 83.0948 26.3707 82.9357 26.223C82.7795 26.0724 82.7013 25.8935 82.7013 25.6861C82.7013 25.4759 82.7795 25.2969 82.9357 25.1491C83.0948 24.9986 83.2852 24.9233 83.5067 24.9233C83.7283 24.9233 83.9173 24.9986 84.0735 25.1491C84.2326 25.2969 84.3121 25.4759 84.3121 25.6861C84.3121 25.8935 84.2326 26.0724 84.0735 26.223C83.9173 26.3707 83.7283 26.4446 83.5067 26.4446ZM85.8643 34V27.4545H87.1385V34H85.8643ZM86.5078 26.4446C86.2862 26.4446 86.0959 26.3707 85.9368 26.223C85.7805 26.0724 85.7024 25.8935 85.7024 25.6861C85.7024 25.4759 85.7805 25.2969 85.9368 25.1491C86.0959 24.9986 86.2862 24.9233 86.5078 24.9233C86.7294 24.9233 86.9183 24.9986 87.0746 25.1491C87.2337 25.2969 87.3132 25.4759 87.3132 25.6861C87.3132 25.8935 87.2337 26.0724 87.0746 26.223C86.9183 26.3707 86.7294 26.4446 86.5078 26.4446ZM91.6097 34.1321C90.9762 34.1321 90.4308 33.9886 89.9734 33.7017C89.5188 33.4119 89.1694 33.0128 88.9251 32.5043C88.6808 31.9957 88.5586 31.4134 88.5586 30.7571C88.5586 30.0923 88.6836 29.5057 88.9336 28.9972C89.1836 28.4858 89.5359 28.0866 89.9904 27.7997C90.445 27.5128 90.9805 27.3693 91.5969 27.3693C92.0941 27.3693 92.5373 27.4616 92.9265 27.6463C93.3157 27.8281 93.6296 28.0838 93.8683 28.4134C94.1097 28.7429 94.2532 29.1278 94.2987 29.5682H93.0586C92.9904 29.2614 92.8342 28.9972 92.5898 28.7756C92.3484 28.554 92.0245 28.4432 91.6183 28.4432C91.2631 28.4432 90.9521 28.5369 90.685 28.7244C90.4208 28.9091 90.2148 29.1733 90.0671 29.517C89.9194 29.858 89.8455 30.2614 89.8455 30.7273C89.8455 31.2045 89.918 31.6165 90.0629 31.9631C90.2077 32.3097 90.4123 32.5781 90.6765 32.7685C90.9435 32.9588 91.2575 33.054 91.6183 33.054C91.8597 33.054 92.0785 33.0099 92.2745 32.9219C92.4734 32.831 92.6396 32.7017 92.7731 32.5341C92.9094 32.3665 93.0046 32.1648 93.0586 31.929H94.2987C94.2532 32.3523 94.1154 32.7301 93.8853 33.0625C93.6552 33.3949 93.3469 33.6562 92.9606 33.8466C92.5771 34.0369 92.1268 34.1321 91.6097 34.1321ZM96.8331 31.7798L96.8246 30.2244H97.0462L99.6541 27.4545H101.18L98.2053 30.608H98.005L96.8331 31.7798ZM95.6612 34V25.2727H96.9354V34H95.6612ZM99.7947 34L97.451 30.8892L98.3288 29.9986L101.359 34H99.7947Z" fill="#0D1117"/>
</svg>
